<svg width="320" height="320" viewBox="0 0 320 320" fill="none" xmlns="http://www.w3.org/2000/svg">
<path d="M160 0C71.68 0 0 71.68 0 160C0 248.32 71.68 320 160 320C248.32 320 320 248.32 320 160C320 71.68 248.32 0 160 0ZM160 48C186.56 48 208 69.44 208 96C208 122.56 186.56 144 160 144C133.44 144 112 122.56 112 96C112 69.44 133.44 48 160 48ZM160 275.2C120 275.2 84.64 254.72 64 223.68C64.48 191.84 128 174.4 160 174.4C191.84 174.4 255.52 191.84 256 223.68C235.36 254.72 200 275.2 160 275.2Z" fill="white"/>
</svg>
