<svg width="332" height="172" viewBox="0 0 332 172" fill="none" xmlns="http://www.w3.org/2000/svg">
<path d="M79.36 13C79.248 13 79.184 12.92 79.184 12.808V2.712C79.184 2.6 79.248 2.52 79.36 2.52H82.336C85.104 2.52 86.384 3.704 86.384 5.944C86.384 8.136 85.04 9.336 82.352 9.336H81.104V12.808C81.104 12.92 81.024 13 80.912 13H79.36ZM81.104 7.704H82.32C83.776 7.704 84.464 7.176 84.464 5.96C84.464 4.696 83.776 4.168 82.304 4.168H81.104V7.704ZM85.8165 13C85.6725 13 85.6245 12.92 85.6565 12.792L89.1125 2.664C89.1445 2.568 89.2245 2.52 89.3205 2.52H91.3685C91.4645 2.52 91.5605 2.552 91.5925 2.664L95.0645 12.792C95.1125 12.92 95.0485 13 94.9205 13H93.2245C93.1285 13 93.0485 12.936 93.0165 12.856L92.3765 10.808H88.3125L87.6885 12.84C87.6565 12.952 87.5605 13 87.4645 13H85.8165ZM89.7045 6.248L88.7925 9.24H91.8805L90.9525 6.28C90.7445 5.576 90.5365 4.888 90.3445 4.184H90.3125C90.1205 4.872 89.9125 5.56 89.7045 6.248ZM98.8871 13.192C96.1831 13.192 94.9511 12.04 95.1111 10.072C95.1271 9.88 95.2071 9.8 95.3351 9.8H96.8391C96.9831 9.8 97.0471 9.896 97.0311 10.04C97.0151 11.08 97.6551 11.544 98.9831 11.544C100.279 11.544 100.903 11.144 100.903 10.264C100.903 9.64 100.599 9.32 99.6711 8.936L97.3511 7.944C95.7991 7.288 95.2551 6.472 95.2711 5.144C95.2871 3.32 96.4871 2.344 98.8551 2.344C101.351 2.344 102.791 3.384 102.615 5.352C102.599 5.544 102.535 5.64 102.423 5.64H100.903C100.775 5.64 100.711 5.576 100.727 5.352C100.791 4.488 100.071 3.96 98.8391 3.96C97.7511 3.96 97.1911 4.344 97.1911 5.112C97.1751 5.72 97.4951 6.056 98.4551 6.472L100.743 7.448C102.295 8.104 102.839 8.872 102.823 10.28C102.823 12.152 101.607 13.192 98.8871 13.192ZM106.398 13C106.286 13 106.206 12.92 106.206 12.808V4.216H103.454C103.342 4.216 103.262 4.136 103.262 4.024V2.712C103.262 2.6 103.342 2.52 103.454 2.52H110.894C111.006 2.52 111.086 2.6 111.086 2.712V4.024C111.086 4.136 111.006 4.216 110.894 4.216H108.142V12.808C108.142 12.92 108.062 13 107.95 13H106.398ZM114.863 13C114.751 13 114.687 12.92 114.687 12.808V2.712C114.687 2.6 114.751 2.52 114.863 2.52H117.839C120.607 2.52 121.887 3.704 121.887 5.944C121.887 8.136 120.543 9.336 117.855 9.336H116.607V12.808C116.607 12.92 116.527 13 116.415 13H114.863ZM116.607 7.704H117.823C119.279 7.704 119.967 7.176 119.967 5.96C119.967 4.696 119.279 4.168 117.807 4.168H116.607V7.704ZM121.32 13C121.176 13 121.128 12.92 121.16 12.792L124.616 2.664C124.648 2.568 124.728 2.52 124.824 2.52H126.872C126.968 2.52 127.064 2.552 127.096 2.664L130.568 12.792C130.616 12.92 130.552 13 130.424 13H128.728C128.632 13 128.552 12.936 128.52 12.856L127.88 10.808H123.816L123.192 12.84C123.16 12.952 123.064 13 122.968 13H121.32ZM125.208 6.248L124.296 9.24H127.384L126.456 6.28C126.248 5.576 126.04 4.888 125.848 4.184H125.816C125.624 4.872 125.416 5.56 125.208 6.248ZM131.286 13C131.174 13 131.11 12.92 131.11 12.808V2.712C131.11 2.6 131.174 2.52 131.286 2.52H134.646C137.382 2.52 138.598 3.592 138.598 5.624C138.598 7.112 137.926 8.152 136.598 8.536V8.568L139.174 12.776C139.254 12.904 139.206 13 139.046 13H137.27C137.19 13 137.11 12.968 137.046 12.872L134.63 8.824H133.03V12.808C133.03 12.92 132.95 13 132.838 13H131.286ZM133.03 7.304H134.566C136.038 7.304 136.678 6.824 136.678 5.688C136.678 4.584 136.118 4.152 134.646 4.152H133.03V7.304ZM142.37 13C142.258 13 142.178 12.92 142.178 12.808V4.216H139.426C139.314 4.216 139.234 4.136 139.234 4.024V2.712C139.234 2.6 139.314 2.52 139.426 2.52H146.866C146.978 2.52 147.058 2.6 147.058 2.712V4.024C147.058 4.136 146.978 4.216 146.866 4.216H144.114V12.808C144.114 12.92 144.034 13 143.922 13H142.37ZM148.225 13C148.113 13 148.049 12.92 148.049 12.808V2.712C148.049 2.6 148.113 2.52 148.225 2.52H150.497C150.593 2.52 150.673 2.568 150.721 2.648L153.297 7.848C153.825 8.904 154.273 9.864 154.561 10.648H154.609C154.561 9.8 154.529 8.616 154.529 7.768V2.712C154.529 2.6 154.593 2.52 154.705 2.52H156.209C156.321 2.52 156.401 2.6 156.401 2.712V12.808C156.401 12.92 156.321 13 156.209 13H153.969C153.873 13 153.793 12.952 153.745 12.872L151.249 7.848C150.769 6.888 150.305 5.816 149.921 4.92H149.873C149.905 5.912 149.921 6.968 149.921 7.976V12.808C149.921 12.92 149.841 13 149.729 13H148.225ZM158.288 13C158.176 13 158.112 12.92 158.112 12.808V2.712C158.112 2.6 158.176 2.52 158.288 2.52H164.416C164.512 2.52 164.592 2.6 164.592 2.712V4.024C164.592 4.136 164.512 4.216 164.416 4.216H160.032V6.888H164.032C164.128 6.888 164.208 6.968 164.208 7.08V8.312C164.208 8.424 164.128 8.504 164.032 8.504H160.032V11.304H164.416C164.512 11.304 164.592 11.384 164.592 11.496V12.808C164.592 12.92 164.512 13 164.416 13H158.288ZM166.289 13C166.177 13 166.113 12.92 166.113 12.808V2.712C166.113 2.6 166.177 2.52 166.289 2.52H169.649C172.385 2.52 173.601 3.592 173.601 5.624C173.601 7.112 172.929 8.152 171.601 8.536V8.568L174.177 12.776C174.257 12.904 174.209 13 174.049 13H172.273C172.193 13 172.113 12.968 172.049 12.872L169.633 8.824H168.033V12.808C168.033 12.92 167.953 13 167.841 13H166.289ZM168.033 7.304H169.569C171.041 7.304 171.681 6.824 171.681 5.688C171.681 4.584 171.121 4.152 169.649 4.152H168.033V7.304ZM178.518 13.192C175.814 13.192 174.582 12.04 174.742 10.072C174.758 9.88 174.838 9.8 174.966 9.8H176.47C176.614 9.8 176.678 9.896 176.662 10.04C176.646 11.08 177.286 11.544 178.614 11.544C179.91 11.544 180.534 11.144 180.534 10.264C180.534 9.64 180.23 9.32 179.302 8.936L176.982 7.944C175.43 7.288 174.886 6.472 174.902 5.144C174.918 3.32 176.118 2.344 178.486 2.344C180.982 2.344 182.422 3.384 182.246 5.352C182.23 5.544 182.166 5.64 182.054 5.64H180.534C180.406 5.64 180.342 5.576 180.358 5.352C180.422 4.488 179.702 3.96 178.47 3.96C177.382 3.96 176.822 4.344 176.822 5.112C176.806 5.72 177.126 6.056 178.086 6.472L180.374 7.448C181.926 8.104 182.47 8.872 182.454 10.28C182.454 12.152 181.238 13.192 178.518 13.192ZM189.357 13.192C186.973 13.192 185.917 12.056 185.917 10.392C185.917 9.08 186.525 8.2 187.709 7.272C186.877 6.392 186.509 5.576 186.509 4.696C186.509 3.112 187.469 2.328 189.261 2.328C190.893 2.328 191.837 3.128 191.837 4.52C191.837 5.496 191.229 6.392 190.077 7.336L192.445 9.608C192.669 8.952 192.765 8.152 192.765 7.224C192.765 7.112 192.845 7.032 192.957 7.032H194.285C194.397 7.032 194.477 7.112 194.477 7.224C194.477 8.664 194.221 9.88 193.725 10.824L195.741 12.76C195.853 12.872 195.821 13 195.645 13H193.805C193.709 13 193.629 12.968 193.565 12.904L192.717 12.104C191.885 12.808 190.765 13.192 189.357 13.192ZM188.221 4.744C188.221 5.208 188.461 5.704 189.021 6.312C189.757 5.72 190.125 5.208 190.125 4.664C190.125 4.104 189.853 3.784 189.197 3.784C188.525 3.784 188.221 4.136 188.221 4.744ZM187.645 10.296C187.645 11.128 188.253 11.688 189.485 11.688C190.381 11.688 191.069 11.448 191.581 11L188.797 8.344C187.933 9.064 187.645 9.576 187.645 10.296ZM203.178 13.192C200.474 13.192 198.986 11.848 198.986 9.24V6.296C198.986 3.672 200.49 2.328 203.178 2.328C205.914 2.328 207.658 3.752 207.338 6.024C207.322 6.136 207.274 6.248 207.146 6.248H205.594C205.466 6.248 205.402 6.168 205.418 6.056C205.466 4.76 204.714 4.008 203.21 4.008C201.738 4.008 200.906 4.776 200.906 6.328V9.192C200.906 10.744 201.738 11.512 203.21 11.512C204.746 11.512 205.53 10.712 205.418 9.464C205.402 9.352 205.466 9.272 205.594 9.272H207.13C207.274 9.272 207.322 9.352 207.338 9.496C207.546 11.752 205.898 13.192 203.178 13.192ZM208.996 13C208.884 13 208.82 12.92 208.82 12.808V2.712C208.82 2.6 208.884 2.52 208.996 2.52H210.564C210.676 2.52 210.74 2.6 210.74 2.712V11.304H214.948C215.06 11.304 215.14 11.384 215.14 11.496V12.808C215.14 12.92 215.06 13 214.948 13H208.996ZM216.152 13C216.04 13 215.976 12.92 215.976 12.808V2.712C215.976 2.6 216.04 2.52 216.152 2.52H217.704C217.816 2.52 217.896 2.6 217.896 2.712V12.808C217.896 12.92 217.816 13 217.704 13H216.152ZM219.778 13C219.666 13 219.602 12.92 219.602 12.808V2.712C219.602 2.6 219.666 2.52 219.778 2.52H225.906C226.002 2.52 226.082 2.6 226.082 2.712V4.024C226.082 4.136 226.002 4.216 225.906 4.216H221.522V6.888H225.522C225.618 6.888 225.698 6.968 225.698 7.08V8.312C225.698 8.424 225.618 8.504 225.522 8.504H221.522V11.304H225.906C226.002 11.304 226.082 11.384 226.082 11.496V12.808C226.082 12.92 226.002 13 225.906 13H219.778ZM227.779 13C227.667 13 227.603 12.92 227.603 12.808V2.712C227.603 2.6 227.667 2.52 227.779 2.52H230.051C230.147 2.52 230.227 2.568 230.275 2.648L232.851 7.848C233.379 8.904 233.827 9.864 234.115 10.648H234.163C234.115 9.8 234.083 8.616 234.083 7.768V2.712C234.083 2.6 234.147 2.52 234.259 2.52H235.763C235.875 2.52 235.955 2.6 235.955 2.712V12.808C235.955 12.92 235.875 13 235.763 13H233.523C233.427 13 233.347 12.952 233.299 12.872L230.803 7.848C230.323 6.888 229.859 5.816 229.475 4.92H229.427C229.459 5.912 229.475 6.968 229.475 7.976V12.808C229.475 12.92 229.395 13 229.283 13H227.779ZM240.066 13C239.954 13 239.874 12.92 239.874 12.808V4.216H237.122C237.01 4.216 236.93 4.136 236.93 4.024V2.712C236.93 2.6 237.01 2.52 237.122 2.52H244.562C244.674 2.52 244.754 2.6 244.754 2.712V4.024C244.754 4.136 244.674 4.216 244.562 4.216H241.81V12.808C241.81 12.92 241.73 13 241.618 13H240.066ZM248.931 13.192C246.227 13.192 244.995 12.04 245.155 10.072C245.171 9.88 245.251 9.8 245.379 9.8H246.883C247.027 9.8 247.091 9.896 247.075 10.04C247.059 11.08 247.699 11.544 249.027 11.544C250.323 11.544 250.947 11.144 250.947 10.264C250.947 9.64 250.643 9.32 249.715 8.936L247.395 7.944C245.843 7.288 245.299 6.472 245.315 5.144C245.331 3.32 246.531 2.344 248.899 2.344C251.395 2.344 252.835 3.384 252.659 5.352C252.643 5.544 252.579 5.64 252.467 5.64H250.947C250.819 5.64 250.755 5.576 250.771 5.352C250.835 4.488 250.115 3.96 248.883 3.96C247.795 3.96 247.235 4.344 247.235 5.112C247.219 5.72 247.539 6.056 248.499 6.472L250.787 7.448C252.339 8.104 252.883 8.872 252.867 10.28C252.867 12.152 251.651 13.192 248.931 13.192Z" fill="#F7F7F7"/>
<path d="M0.5 47C0.5 38.7157 7.21573 32 15.5 32H316.5C324.784 32 331.5 38.7157 331.5 47V171.843H0.5V47Z" fill="url(#paint0_linear_3_575)"/>
<path d="M75.6163 78.9299L74.8882 80.9795H74.8276C74.7062 80.5173 74.4838 79.814 74.1197 78.9701L70.2166 69.2244H66.3943V84.7572H68.9222V75.1723L68.902 73.0423C68.8818 72.6203 68.8414 72.2988 68.8211 72.0577H68.8818C69.0031 72.6605 69.1447 73.1026 69.2458 73.3839L73.9377 84.717H75.7174L80.3689 73.2834C80.47 73.0222 80.5711 72.4997 80.6722 72.0577H80.7329L80.6115 74.8508V84.6969H83.3013V69.1842H79.6206L75.6163 78.9299ZM85.8495 73.5647H88.4786V84.6969H85.8495V73.5647ZM87.1842 68.8627C86.7393 68.8627 86.3753 69.0234 86.0719 69.3048C85.7686 69.5861 85.6068 69.9478 85.6068 70.3898C85.604 70.59 85.644 70.7884 85.7242 70.972C85.8044 71.1556 85.9229 71.3202 86.0719 71.4548C86.3753 71.7362 86.7393 71.8768 87.1842 71.8768C87.6292 71.8768 88.0134 71.7161 88.2965 71.4548C88.4456 71.3202 88.5641 71.1556 88.6443 70.972C88.7245 70.7884 88.7645 70.59 88.7617 70.3898C88.7617 69.9679 88.5999 69.6062 88.2965 69.3048C88.0336 69.0234 87.6494 68.8627 87.1842 68.8627ZM97.8017 73.4643C97.3163 73.3638 96.8107 73.3035 96.3254 73.3035C95.1322 73.3035 94.0401 73.5647 93.13 74.0872C92.2199 74.6096 91.4919 75.333 91.0267 76.2373C90.5414 77.1616 90.2987 78.2266 90.2987 79.4523C90.2987 80.5173 90.5414 81.4618 91.0065 82.3258C91.4717 83.1698 92.1188 83.853 92.9884 84.3151C93.8176 84.7773 94.7884 85.0184 95.8804 85.0184C97.1343 85.0184 98.2062 84.7572 99.0556 84.275L99.0758 84.2549V81.8436L98.9747 81.9239C98.5904 82.2052 98.1455 82.4464 97.7006 82.587C97.2354 82.7478 96.8107 82.8282 96.4467 82.8282C95.3951 82.8282 94.5659 82.5268 93.9794 81.8636C93.3727 81.2206 93.0693 80.3365 93.0693 79.2313C93.0693 78.0859 93.3727 77.1817 93.9996 76.5186C94.6266 75.8555 95.4557 75.5139 96.4669 75.5139C97.3163 75.5139 98.1859 75.7952 98.9747 76.3578L99.0758 76.4382V73.8862L99.0556 73.8661C98.7118 73.7255 98.3275 73.5647 97.8017 73.4643ZM106.478 73.3839C105.83 73.3839 105.224 73.5848 104.698 74.0068C104.253 74.3685 103.95 74.8909 103.687 75.5139H103.667V73.5647H101.037V84.6969H103.667V79.0103C103.667 78.0457 103.869 77.242 104.314 76.6592C104.759 76.0564 105.325 75.755 106.013 75.755C106.255 75.755 106.498 75.8153 106.801 75.8555C107.084 75.9358 107.287 76.0162 107.428 76.1167L107.529 76.1971V73.5848L107.469 73.5647C107.287 73.4442 106.923 73.3839 106.478 73.3839ZM113.637 73.3236C111.796 73.3236 110.32 73.8661 109.289 74.9311C108.237 75.9961 107.732 77.463 107.732 79.3117C107.732 81.0398 108.257 82.4464 109.269 83.4712C110.28 84.4759 111.655 84.9983 113.374 84.9983C115.174 84.9983 116.61 84.4558 117.641 83.3707C118.693 82.2856 119.198 80.8388 119.198 79.0505C119.198 77.2822 118.713 75.8756 117.722 74.8508C116.772 73.826 115.376 73.3236 113.637 73.3236ZM115.74 81.8837C115.255 82.5067 114.486 82.8081 113.536 82.8081C112.585 82.8081 111.817 82.5067 111.271 81.8436C110.725 81.2206 110.462 80.3164 110.462 79.171C110.462 77.9855 110.745 77.0812 111.271 76.4382C111.817 75.7952 112.565 75.4737 113.515 75.4737C114.446 75.4737 115.174 75.7751 115.7 76.398C116.225 77.0209 116.509 77.9252 116.509 79.1107C116.468 80.3164 116.246 81.2608 115.74 81.8837ZM125.063 78.1864C124.234 77.8448 123.708 77.5836 123.466 77.3625C123.263 77.1616 123.162 76.8803 123.162 76.5186C123.162 76.2172 123.284 75.9158 123.587 75.7148C123.89 75.5139 124.234 75.4134 124.74 75.4134C125.185 75.4134 125.65 75.4938 126.095 75.6143C126.54 75.7349 126.944 75.9158 127.268 76.1569L127.369 76.2373V73.7858L127.308 73.7657C127.005 73.6451 126.6 73.5245 126.115 73.4241C125.629 73.3437 125.185 73.3035 124.821 73.3035C123.567 73.3035 122.535 73.6049 121.726 74.268C120.917 74.8909 120.533 75.7349 120.533 76.7195C120.533 77.242 120.614 77.7041 120.796 78.0859C120.978 78.4677 121.241 78.8294 121.605 79.1308C121.969 79.4122 122.495 79.7337 123.223 80.0351C123.83 80.2963 124.295 80.4972 124.578 80.658C124.861 80.8187 125.043 80.9996 125.185 81.1403C125.286 81.301 125.346 81.5019 125.346 81.7632C125.346 82.5067 124.78 82.8684 123.627 82.8684C123.182 82.8684 122.717 82.788 122.171 82.6071C121.625 82.4263 121.12 82.1651 120.695 81.8636L120.594 81.7833V84.3352L120.654 84.3553C121.039 84.5362 121.504 84.6567 122.07 84.7974C122.636 84.8979 123.142 84.9783 123.587 84.9783C124.942 84.9783 126.054 84.6768 126.843 84.0137C127.652 83.3707 128.077 82.5468 128.077 81.4819C128.077 80.7384 127.874 80.0753 127.429 79.5729C126.843 79.0906 126.115 78.5883 125.063 78.1864ZM135.013 73.3236C133.173 73.3236 131.697 73.8661 130.665 74.9311C129.634 75.9961 129.108 77.463 129.108 79.3117C129.108 81.0398 129.634 82.4464 130.645 83.4712C131.656 84.4759 133.031 84.9983 134.75 84.9983C136.55 84.9983 137.986 84.4558 139.018 83.3707C140.069 82.2856 140.575 80.8388 140.575 79.0505C140.575 77.2822 140.089 75.8756 139.098 74.8508C138.148 73.826 136.753 73.3236 135.013 73.3236ZM137.096 81.8837C136.611 82.5067 135.842 82.8081 134.892 82.8081C133.921 82.8081 133.173 82.5067 132.627 81.8436C132.081 81.2206 131.818 80.3164 131.818 79.171C131.818 77.9855 132.101 77.0812 132.627 76.4382C133.173 75.7952 133.921 75.4737 134.872 75.4737C135.782 75.4737 136.53 75.7751 137.056 76.398C137.582 77.0209 137.865 77.9252 137.865 79.1107C137.865 80.3164 137.602 81.2608 137.096 81.8837ZM154.63 75.7148V73.5647H151.981V70.2693L151.9 70.2894L149.392 71.0329L149.332 71.053V73.5647H145.368V72.1581C145.368 71.5151 145.53 71.0128 145.813 70.6913C146.096 70.3697 146.521 70.209 147.046 70.209C147.41 70.209 147.795 70.2894 148.219 70.4702L148.32 70.5305V68.2599L148.26 68.2398C147.896 68.1192 147.41 68.0388 146.783 68.0388C145.995 68.0388 145.307 68.2197 144.68 68.5211C144.053 68.8627 143.588 69.3248 143.244 69.9478C142.901 70.5506 142.719 71.2338 142.719 72.0175V73.5647H140.878V75.6947H142.719V84.6969H145.368V75.7148H149.332V81.4417C149.332 83.7927 150.444 84.9783 152.669 84.9783C153.033 84.9783 153.417 84.918 153.781 84.8577C154.165 84.7773 154.448 84.6768 154.61 84.5965L154.63 84.5764V82.4263L154.529 82.5067C154.367 82.6071 154.226 82.6875 153.983 82.7478C153.781 82.8081 153.599 82.8282 153.457 82.8282C152.931 82.8282 152.567 82.7076 152.305 82.4062C152.062 82.1249 151.941 81.6627 151.941 80.9795V75.7148H154.63Z" fill="white"/>
<path d="M32.5 64H44.8971V76.3178H32.5V64Z" fill="white"/>
<path d="M46.1909 64H58.588V76.3178H46.1909V64Z" fill="white"/>
<path d="M32.5 77.6039H44.8971V89.9216H32.5V77.6039Z" fill="white"/>
<path d="M46.1909 77.6039H58.588V89.9216H46.1909V77.6039Z" fill="white"/>
<path d="M293.309 84.8028C293.309 83.1106 294.712 81.7073 296.404 81.7073C298.097 81.7073 299.5 83.1106 299.5 84.8028C299.5 86.495 298.097 87.8983 296.404 87.8983C294.712 87.8983 293.309 86.495 293.309 84.8028Z" fill="white"/>
<path d="M200.319 76.383C200.319 79.9738 199.37 82.6978 197.43 84.6377C195.49 86.5775 192.808 87.5268 189.299 87.5268H182.531V66.0646H189.795C193.138 66.0646 195.738 66.9313 197.595 68.7061C199.37 70.5221 200.319 73.0398 200.319 76.383ZM194.417 76.5893C194.417 74.6082 194.046 73.1636 193.262 72.2143C192.519 71.265 191.363 70.811 189.795 70.811H188.144V82.8216H189.423C191.157 82.8216 192.395 82.3264 193.22 81.2945C194.046 80.2627 194.417 78.6943 194.417 76.5893Z" fill="white"/>
<path d="M224.464 66.0233H219.058V87.5681H224.464V66.0233Z" fill="white"/>
<path d="M242.129 79.5198C242.129 82.1201 241.428 84.1838 240.066 85.6283C238.704 87.0729 236.764 87.8158 234.288 87.8158C231.935 87.8158 230.036 87.0729 228.633 85.5871C227.23 84.1012 226.528 82.0788 226.528 79.5198C226.528 76.9196 227.23 74.8972 228.592 73.4526C229.954 72.008 231.894 71.3064 234.37 71.3064C235.897 71.3064 237.259 71.6366 238.456 72.297C239.653 72.9573 240.52 73.9066 241.18 75.1861C241.841 76.383 242.129 77.8689 242.129 79.5198ZM232.017 79.5198C232.017 80.8819 232.183 81.955 232.554 82.6566C232.925 83.3583 233.503 83.7297 234.37 83.7297C235.196 83.7297 235.815 83.3583 236.145 82.6566C236.475 81.955 236.681 80.8819 236.681 79.5198C236.681 78.1578 236.516 77.126 236.145 76.4243C235.815 75.7227 235.196 75.3925 234.37 75.3925C233.545 75.3925 232.967 75.7227 232.595 76.4243C232.224 77.126 232.017 78.1578 232.017 79.5198Z" fill="white"/>
<path d="M249.683 71.554H244.276V87.5681H249.683V71.554Z" fill="white"/>
<path d="M249.683 66.0233H244.276V69.6141H249.683V66.0233Z" fill="white"/>
<path d="M260.579 83.482C261.322 83.482 262.189 83.3169 263.179 82.9454V86.9903C262.436 87.3204 261.776 87.5268 261.116 87.6919C260.455 87.8157 259.671 87.8983 258.804 87.8983C256.988 87.8983 255.709 87.4443 254.883 86.5362C254.099 85.6282 253.686 84.2249 253.686 82.3676V75.7638H251.788V71.6365H253.686V67.4678L259.135 66.5186V71.5539H262.56V75.6813H259.135V81.9136C259.135 82.9454 259.63 83.482 260.579 83.482Z" fill="white"/>
<path d="M273.085 83.482C273.828 83.482 274.694 83.3169 275.685 82.9454V86.9902C274.942 87.3204 274.282 87.5268 273.621 87.6919C272.961 87.8157 272.177 87.8982 271.31 87.8982C269.494 87.8982 268.214 87.4442 267.389 86.5362C266.605 85.6282 266.192 84.2249 266.192 82.3676V75.7638H264.293V71.6364H266.192V67.5091L271.64 66.6423V71.6777H275.066V75.8051H271.64V82.0374C271.599 82.9454 272.094 83.482 273.085 83.482Z" fill="white"/>
<path d="M290.089 73.1636C288.81 71.9254 286.994 71.265 284.641 71.265C282.165 71.265 280.266 71.9667 278.945 73.4525C277.625 74.8971 276.964 76.9608 276.964 79.6848C276.964 82.2851 277.666 84.3075 279.111 85.752C280.555 87.1553 282.578 87.857 285.178 87.857C286.416 87.857 287.489 87.7744 288.397 87.6094C289.305 87.4443 290.172 87.1553 290.997 86.7013L290.172 83.1105C289.553 83.3582 288.975 83.5645 288.438 83.6884C287.654 83.8535 286.787 83.9773 285.838 83.9773C284.806 83.9773 283.981 83.7296 283.362 83.2344C282.743 82.7391 282.454 82.0374 282.412 81.1294H292.029V78.6943C291.988 76.2178 291.369 74.4018 290.089 73.1636ZM282.495 77.5799C282.578 76.7131 282.825 76.0527 283.238 75.64C283.651 75.2273 284.187 75.0209 284.848 75.0209C285.549 75.0209 286.086 75.2686 286.499 75.7226C286.911 76.1766 287.118 76.7957 287.159 77.5799H282.495Z" fill="white"/>
<path d="M215.054 73.1636C213.775 71.9254 211.959 71.265 209.606 71.265C207.13 71.265 205.231 71.9667 203.91 73.4525C202.59 74.8971 201.929 76.9608 201.929 79.6848C201.929 82.2851 202.631 84.3075 204.075 85.752C205.52 87.1553 207.542 87.857 210.143 87.857C211.381 87.857 212.454 87.7744 213.362 87.6094C214.27 87.4443 215.137 87.1553 215.962 86.7013L215.137 83.1105C214.518 83.3582 213.94 83.5645 213.403 83.6884C212.619 83.8535 211.752 83.9773 210.803 83.9773C209.771 83.9773 208.946 83.7296 208.327 83.2344C207.708 82.7391 207.419 82.0374 207.377 81.1294H216.994V78.6943C216.994 76.2178 216.334 74.4018 215.054 73.1636ZM207.46 77.5799C207.542 76.7131 207.79 76.0527 208.203 75.64C208.616 75.2273 209.152 75.0209 209.812 75.0209C210.514 75.0209 211.051 75.2686 211.463 75.7226C211.876 76.1766 212.082 76.7957 212.124 77.5799H207.46Z" fill="white"/>
<path d="M32.5 126.882V113.922H63.3085V139.843H32.5V126.882ZM44.6109 127.839V121.358H49.1366C53.2798 121.358 53.7048 121.401 54.3422 121.783C55.6808 122.591 56.3394 125.438 55.9145 128.412C55.447 131.536 54.5122 132.258 51.1551 132.152L49.1791 132.088L49.1154 127.159L49.0729 122.208H45.4608V134.361L50.5177 134.277L55.5533 134.213L56.7856 133.618C58.7616 132.64 59.6328 130.941 59.8452 127.626C59.9727 125.544 59.6753 123.207 59.1228 122.123C58.6554 121.188 57.8055 120.338 56.8281 119.807C55.9995 119.34 55.7658 119.34 45.8433 119.276L35.6871 119.212V121.358H40.9989V134.319H44.6109V127.839Z" fill="white"/>
<path d="M85.7631 132.994C84.3395 132.335 83.8083 130.805 84.4882 129.361C85.0407 128.192 86.188 127.682 88.4827 127.576C89.5026 127.533 90.3312 127.406 90.3312 127.3C90.3312 126.513 87.7603 126.195 86.103 126.79L85.2319 127.087V124.58L86.2518 124.41C86.8042 124.325 88.1215 124.24 89.1839 124.261C90.7774 124.261 91.2874 124.346 92.1373 124.792C93.9008 125.664 94.0495 126.004 94.1132 129.786L94.177 133.058H92.2647C90.3312 133.058 90.3312 133.058 90.3312 132.505V131.974L89.5663 132.548C88.6527 133.249 86.8042 133.461 85.7631 132.994ZM89.8001 130.614C90.0975 130.338 90.3312 129.913 90.3312 129.658C90.3312 129.318 90.2038 129.233 89.6301 129.233C88.334 129.233 87.4629 130.38 88.3765 130.912C88.9502 131.252 89.2476 131.188 89.8001 130.614ZM72.0586 127.215V121.329L76.478 121.414C81.4074 121.499 82.1298 121.669 82.8947 122.901C83.7233 124.261 83.2134 126.067 81.8111 126.79L81.1524 127.151L81.8536 127.491C82.9372 128.043 83.5959 129.148 83.4684 130.232C83.3409 131.358 82.8947 132.08 81.9811 132.569C81.4074 132.888 80.6212 132.951 76.6905 133.015L72.0586 133.079V127.215ZM78.284 130.487C78.8365 130.189 79.0702 129.892 79.0702 129.403C79.0702 128.723 78.454 128.383 77.2429 128.383H76.0956V129.403C76.0956 129.977 76.1593 130.508 76.2443 130.572C76.4568 130.805 77.7741 130.742 78.284 130.487ZM78.454 125.621C78.9215 125.366 79.0064 124.367 78.6028 123.964C78.454 123.815 77.8378 123.709 77.2217 123.709H76.0956V125.834H77.0729C77.6041 125.834 78.2203 125.727 78.454 125.621ZM95.2606 128.766L95.3243 124.452L97.3003 124.389L99.2551 124.325V124.877C99.2551 125.536 99.3613 125.536 100.126 124.899C101.316 123.9 103.547 124.006 104.588 125.111C105.077 125.642 105.098 125.77 105.162 129.361L105.226 133.058H100.976L100.912 130.041C100.849 127.236 100.827 127.002 100.445 126.938C99.6588 126.768 99.4676 127.448 99.4676 130.338V133.058H95.2181L95.2606 128.766ZM106.692 126.79V120.522H110.729V124.028C110.729 125.961 110.814 127.533 110.899 127.533C111.005 127.533 111.578 126.811 112.195 125.94L113.3 124.346H115.637C117.464 124.346 117.931 124.41 117.804 124.622C117.719 124.75 117.124 125.557 116.508 126.365C115.87 127.193 115.297 127.98 115.254 128.107C115.191 128.256 115.785 129.361 116.55 130.572C117.315 131.783 117.953 132.845 117.953 132.909C117.953 132.994 116.869 133.058 115.573 133.058H113.172L112.131 131.145C111.557 130.083 111.005 129.233 110.899 129.233C110.814 129.233 110.729 130.104 110.729 131.145V133.058H106.692V126.79Z" fill="white"/>
<path fill-rule="evenodd" clip-rule="evenodd" d="M217.584 137.438C218.297 137.625 219.17 137.759 219.921 137.759C220.687 137.759 221.567 137.626 222.311 137.415C224.541 136.789 226.415 134.99 227.204 132.729C227.584 131.681 227.856 130.5 227.856 129.381C227.856 128.271 227.583 127.075 227.227 126.065C226.415 123.876 224.564 122.053 222.356 121.404C221.651 121.216 220.71 121.083 219.959 121.083C219.15 121.091 218.347 121.207 217.569 121.427C215.368 122.053 213.495 123.914 212.683 126.128C212.327 127.136 212.076 128.357 212.076 129.515C212.076 130.609 212.327 131.877 212.698 133.011H205.871C204.353 133.011 203.125 131.681 203.125 130.117L203.102 115.89H198.899V130.117C198.899 134.106 202.04 137.352 205.894 137.352H213.616V134.583C214.595 135.928 216.036 137.023 217.584 137.438ZM216.241 131.188C216.203 130.696 216.097 130.047 216.097 129.515C216.097 128.936 216.181 128.185 216.264 127.676C216.318 127.222 216.545 126.691 216.712 126.299C217.251 125.009 218.563 124.196 219.944 124.196C221.317 124.196 222.645 125.01 223.206 126.299C223.396 126.706 223.585 127.269 223.646 127.691C223.73 128.16 223.835 128.849 223.835 129.381C223.835 129.921 223.691 130.648 223.623 131.165C223.585 131.618 223.357 132.15 223.19 132.518C222.606 133.824 221.331 134.707 219.921 134.707C218.548 134.707 217.251 133.824 216.712 132.541C216.544 132.15 216.279 131.619 216.241 131.188ZM242.983 134.059C241.905 136.397 239.591 137.883 237.073 137.883C235.555 137.883 233.947 137.234 232.794 136.202V137.344H228.895V115.882H232.854V122.67C234.026 121.656 235.522 121.093 237.072 121.082C238.073 121.082 239.173 121.356 240.031 121.787C241.403 122.514 242.572 123.938 243.194 125.455C243.65 126.683 243.961 128.115 243.961 129.483C243.962 131.009 243.612 132.682 242.983 134.059ZM232.953 127.215C233.029 126.856 233.279 126.464 233.469 126.144C234.091 125.135 235.176 124.47 236.344 124.47C237.012 124.47 237.74 124.689 238.256 125.072C239.068 125.714 239.721 126.793 239.842 127.881C239.903 128.326 239.964 128.975 239.964 129.469C239.964 129.914 239.881 130.454 239.842 130.884C239.781 131.588 239.425 132.338 239.068 132.941C238.491 133.887 237.407 134.513 236.284 134.513C234.903 134.513 233.636 133.606 233.181 132.276C232.893 131.416 232.688 130.305 232.688 129.359C232.688 128.67 232.809 127.833 232.953 127.215ZM249.006 137.352H244.993V115.89H249.006V137.352ZM260.295 132.432C260.356 131.791 260.453 130.954 260.453 130.289C260.453 129.945 260.392 129.562 260.392 129.241C260.052 129.429 259.565 129.648 259.156 129.734L256.675 130.336C256.258 130.422 255.818 130.609 255.423 130.781C254.991 130.977 254.528 131.298 254.263 131.666C254.027 131.939 253.929 132.33 253.929 132.682C253.929 132.839 253.967 133.027 254.012 133.16C254.263 133.777 254.801 134.364 255.423 134.575C255.848 134.709 256.29 134.78 256.736 134.786C257.737 134.786 258.739 134.403 259.527 133.777C259.922 133.457 260.256 132.941 260.295 132.432ZM264.186 135.154C264.186 135.952 264.369 136.718 264.703 137.344H260.811C260.724 136.874 260.647 136.401 260.583 135.927C259.301 137.062 257.632 137.711 255.924 137.711C254.407 137.711 252.821 137.148 251.638 136.209C250.781 135.537 250.159 134.488 250.03 133.37C250.03 133.269 250.016 133.097 250.016 132.987C250.016 131.509 250.743 130.117 251.926 129.304C252.677 128.764 253.694 128.295 254.636 128.1C255.636 127.818 256.904 127.669 257.859 127.544C258.193 127.474 258.754 127.349 259.111 127.326C259.801 127.239 260.31 126.637 260.31 125.933C260.31 125.714 260.279 125.502 260.196 125.307C260.006 124.9 259.635 124.532 259.218 124.369C258.678 124.085 258.076 123.937 257.466 123.939C256.949 123.939 256.403 124.04 255.903 124.259C255.114 124.58 254.576 125.354 254.507 126.23H251.033C251.094 125.456 251.329 124.557 251.639 123.868C251.918 123.293 252.332 122.794 252.846 122.414C253.263 122.109 253.802 121.788 254.28 121.639C255.303 121.295 256.463 121.084 257.549 121.084C258.839 121.084 260.257 121.358 261.372 121.811C262.313 122.241 263.147 122.969 263.641 123.868C263.973 124.619 264.202 125.738 264.202 126.598L264.186 135.154ZM268.526 137.352L263.883 121.576H267.836L270.65 131.603L273.161 121.576H276.788L279.654 131.712L282.174 121.576H286.172L281.658 137.352H277.971L275.081 126.707L272.228 137.352H268.526ZM293.894 124.392C294.668 124.65 295.252 125.4 295.313 126.237H298.916C298.894 124.477 297.892 122.804 296.375 122.053C294.13 120.981 292.02 120.872 289.668 121.583C287.294 122.311 286.133 123.789 286.133 126.128C286.133 127.293 286.649 128.474 287.484 129.225C288.424 130.062 289.836 130.492 291.026 130.727L294.226 131.368C295.524 131.603 296.29 133.011 295.168 134.066C294.107 135.052 292.543 134.965 291.292 134.473C290.313 134.09 289.608 133.097 289.524 132.009H285.906C285.943 132.971 286.194 133.98 286.672 134.778C287.21 135.677 288.106 136.539 289.046 136.968C291.361 137.993 293.483 138.055 295.851 137.39C298.142 136.726 299.5 134.965 299.5 132.588C299.5 130.875 298.832 129.459 297.375 128.646C296.563 128.221 295.691 127.923 294.789 127.762L290.86 127.034C289.714 126.863 289.25 125.681 290.062 124.845C291.148 123.86 292.59 124.024 293.894 124.392Z" fill="white"/>
<path fill-rule="evenodd" clip-rule="evenodd" d="M183.433 115.889H173.023V126.621C173.023 132.534 177.849 137.359 183.754 137.359H194.485L194.501 126.925L187.548 126.933C185.287 126.925 183.433 125.087 183.433 122.819V115.889Z" fill="white"/>
<path fill-rule="evenodd" clip-rule="evenodd" d="M187.235 115.889H184.075V122.827C184.075 124.735 185.639 126.284 187.548 126.291H194.485V123.123L190.09 123.132C188.518 123.124 187.235 121.85 187.235 120.285V115.889H187.235ZM190.708 115.889H187.876V120.293C187.876 121.505 188.869 122.483 190.082 122.491H194.485V119.69H192.405C191.482 119.69 190.731 118.932 190.716 117.993L190.708 115.889ZM194.485 115.889H191.357L191.365 117.993C191.373 118.58 191.834 119.049 192.398 119.049H194.486V115.889H194.485Z" fill="white"/>
<defs>
<linearGradient id="paint0_linear_3_575" x1="166" y1="32" x2="166" y2="171.843" gradientUnits="userSpaceOnUse">
<stop stop-color="#F0B542"/>
<stop offset="1" stop-color="#F0B542" stop-opacity="0"/>
</linearGradient>
</defs>
</svg>
