<svg width="1368" height="158" viewBox="0 0 1368 158" fill="none" xmlns="http://www.w3.org/2000/svg">
<path d="M1.7 16.4358H3.64C3.78 16.4358 3.88 16.3358 3.88 16.1958V11.8558H5.44C8.8 11.8558 10.48 10.3558 10.48 7.61579C10.48 4.81579 8.88 3.33579 5.42 3.33579H1.7C1.56 3.33579 1.48 3.43579 1.48 3.57579V16.1958C1.48 16.3358 1.56 16.4358 1.7 16.4358ZM3.88 9.81579V5.39579H5.38C7.22 5.39579 8.08 6.05579 8.08 7.63579C8.08 9.15579 7.22 9.81579 5.4 9.81579H3.88ZM9.77062 16.4358H11.8306C11.9506 16.4358 12.0706 16.3758 12.1106 16.2358L12.8906 13.6958H17.9706L18.7706 16.2558C18.8106 16.3558 18.9106 16.4358 19.0306 16.4358H21.1506C21.3106 16.4358 21.3906 16.3358 21.3306 16.1758L16.9906 3.51579C16.9506 3.37579 16.8306 3.33579 16.7106 3.33579H14.1506C14.0306 3.33579 13.9306 3.39579 13.8906 3.51579L9.57062 16.1758C9.53062 16.3358 9.59062 16.4358 9.77062 16.4358ZM14.6306 7.99579C14.8906 7.13579 15.1506 6.27579 15.3906 5.41579H15.4306C15.6706 6.29579 15.9306 7.15579 16.1906 8.03579L17.3506 11.7358H13.4906L14.6306 7.99579ZM26.1089 16.6758C29.5089 16.6758 31.0289 15.3758 31.0289 13.0358C31.0489 11.2758 30.3689 10.3158 28.4289 9.49579L25.5689 8.27579C24.3689 7.75579 23.9689 7.33579 23.9889 6.57579C23.9889 5.61579 24.6889 5.13579 26.0489 5.13579C27.5889 5.13579 28.4889 5.79579 28.4089 6.87579C28.3889 7.15579 28.4689 7.23579 28.6289 7.23579H30.5289C30.6689 7.23579 30.7489 7.11579 30.7689 6.87579C30.9889 4.41579 29.1889 3.11579 26.0689 3.11579C23.1089 3.11579 21.6089 4.33579 21.5889 6.61579C21.5689 8.27579 22.2489 9.29579 24.1889 10.1158L27.0889 11.3558C28.2489 11.8358 28.6289 12.2358 28.6289 13.0158C28.6289 14.1158 27.8489 14.6158 26.2289 14.6158C24.5689 14.6158 23.7689 14.0358 23.7889 12.7358C23.8089 12.5558 23.7289 12.4358 23.5489 12.4358H21.6689C21.5089 12.4358 21.4089 12.5358 21.3889 12.7758C21.1889 15.2358 22.7289 16.6758 26.1089 16.6758ZM35.498 16.4358H37.438C37.578 16.4358 37.678 16.3358 37.678 16.1958V5.45579H41.118C41.258 5.45579 41.358 5.35579 41.358 5.21579V3.57579C41.358 3.43579 41.258 3.33579 41.118 3.33579H31.818C31.678 3.33579 31.578 3.43579 31.578 3.57579V5.21579C31.578 5.35579 31.678 5.45579 31.818 5.45579H35.258V16.1958C35.258 16.3358 35.358 16.4358 35.498 16.4358ZM46.0789 16.4358H48.0189C48.1589 16.4358 48.2589 16.3358 48.2589 16.1958V11.8558H49.8189C53.1789 11.8558 54.8589 10.3558 54.8589 7.61579C54.8589 4.81579 53.2589 3.33579 49.7989 3.33579H46.0789C45.9389 3.33579 45.8589 3.43579 45.8589 3.57579V16.1958C45.8589 16.3358 45.9389 16.4358 46.0789 16.4358ZM48.2589 9.81579V5.39579H49.7589C51.5989 5.39579 52.4589 6.05579 52.4589 7.63579C52.4589 9.15579 51.5989 9.81579 49.7789 9.81579H48.2589ZM54.1495 16.4358H56.2095C56.3295 16.4358 56.4495 16.3758 56.4895 16.2358L57.2695 13.6958H62.3495L63.1495 16.2558C63.1895 16.3558 63.2895 16.4358 63.4095 16.4358H65.5295C65.6895 16.4358 65.7695 16.3358 65.7095 16.1758L61.3695 3.51579C61.3295 3.37579 61.2095 3.33579 61.0895 3.33579H58.5295C58.4095 3.33579 58.3095 3.39579 58.2695 3.51579L53.9495 16.1758C53.9095 16.3358 53.9695 16.4358 54.1495 16.4358ZM59.0095 7.99579C59.2695 7.13579 59.5295 6.27579 59.7695 5.41579H59.8095C60.0495 6.29579 60.3095 7.15579 60.5695 8.03579L61.7295 11.7358H57.8695L59.0095 7.99579ZM66.6078 16.4358H68.5478C68.6878 16.4358 68.7878 16.3358 68.7878 16.1958V11.2158H70.7878L73.8078 16.2758C73.8878 16.3958 73.9878 16.4358 74.0878 16.4358H76.3078C76.5078 16.4358 76.5678 16.3158 76.4678 16.1558L73.2478 10.8958V10.8558C74.9078 10.3758 75.7478 9.07579 75.7478 7.21579C75.7478 4.67579 74.2278 3.33579 70.8078 3.33579H66.6078C66.4678 3.33579 66.3878 3.43579 66.3878 3.57579V16.1958C66.3878 16.3358 66.4678 16.4358 66.6078 16.4358ZM68.7878 9.31579V5.37579H70.8078C72.6478 5.37579 73.3478 5.91579 73.3478 7.29579C73.3478 8.71579 72.5478 9.31579 70.7078 9.31579H68.7878ZM80.4628 16.4358H82.4028C82.5428 16.4358 82.6428 16.3358 82.6428 16.1958V5.45579H86.0828C86.2228 5.45579 86.3228 5.35579 86.3228 5.21579V3.57579C86.3228 3.43579 86.2228 3.33579 86.0828 3.33579H76.7828C76.6428 3.33579 76.5428 3.43579 76.5428 3.57579V5.21579C76.5428 5.35579 76.6428 5.45579 76.7828 5.45579H80.2228V16.1958C80.2228 16.3358 80.3228 16.4358 80.4628 16.4358ZM87.7813 16.4358H89.6613C89.8013 16.4358 89.9013 16.3358 89.9013 16.1958V10.1558C89.9013 8.89579 89.8813 7.57579 89.8413 6.33579H89.9013C90.3813 7.45579 90.9613 8.79579 91.5613 9.99579L94.6813 16.2758C94.7413 16.3758 94.8413 16.4358 94.9613 16.4358H97.7613C97.9013 16.4358 98.0013 16.3358 98.0013 16.1958V3.57579C98.0013 3.43579 97.9013 3.33579 97.7613 3.33579H95.8813C95.7413 3.33579 95.6613 3.43579 95.6613 3.57579V9.89579C95.6613 10.9558 95.7013 12.4358 95.7613 13.4958H95.7013C95.3413 12.5158 94.7813 11.3158 94.1213 9.99579L90.9013 3.49579C90.8413 3.39579 90.7413 3.33579 90.6213 3.33579H87.7813C87.6413 3.33579 87.5613 3.43579 87.5613 3.57579V16.1958C87.5613 16.3358 87.6413 16.4358 87.7813 16.4358ZM100.36 16.4358H108.02C108.14 16.4358 108.24 16.3358 108.24 16.1958V14.5558C108.24 14.4158 108.14 14.3158 108.02 14.3158H102.54V10.8158H107.54C107.66 10.8158 107.76 10.7158 107.76 10.5758V9.03579C107.76 8.89579 107.66 8.79579 107.54 8.79579H102.54V5.45579H108.02C108.14 5.45579 108.24 5.35579 108.24 5.21579V3.57579C108.24 3.43579 108.14 3.33579 108.02 3.33579H100.36C100.22 3.33579 100.14 3.43579 100.14 3.57579V16.1958C100.14 16.3358 100.22 16.4358 100.36 16.4358ZM110.361 16.4358H112.301C112.441 16.4358 112.541 16.3358 112.541 16.1958V11.2158H114.541L117.561 16.2758C117.641 16.3958 117.741 16.4358 117.841 16.4358H120.061C120.261 16.4358 120.321 16.3158 120.221 16.1558L117.001 10.8958V10.8558C118.661 10.3758 119.501 9.07579 119.501 7.21579C119.501 4.67579 117.981 3.33579 114.561 3.33579H110.361C110.221 3.33579 110.141 3.43579 110.141 3.57579V16.1958C110.141 16.3358 110.221 16.4358 110.361 16.4358ZM112.541 9.31579V5.37579H114.561C116.401 5.37579 117.101 5.91579 117.101 7.29579C117.101 8.71579 116.301 9.31579 114.461 9.31579H112.541ZM125.648 16.6758C129.048 16.6758 130.568 15.3758 130.568 13.0358C130.588 11.2758 129.908 10.3158 127.968 9.49579L125.108 8.27579C123.908 7.75579 123.508 7.33579 123.528 6.57579C123.528 5.61579 124.228 5.13579 125.588 5.13579C127.128 5.13579 128.028 5.79579 127.948 6.87579C127.928 7.15579 128.008 7.23579 128.168 7.23579H130.068C130.208 7.23579 130.288 7.11579 130.308 6.87579C130.528 4.41579 128.728 3.11579 125.608 3.11579C122.648 3.11579 121.148 4.33579 121.128 6.61579C121.108 8.27579 121.788 9.29579 123.728 10.1158L126.628 11.3558C127.788 11.8358 128.168 12.2358 128.168 13.0158C128.168 14.1158 127.388 14.6158 125.768 14.6158C124.108 14.6158 123.308 14.0358 123.328 12.7358C123.348 12.5558 123.268 12.4358 123.088 12.4358H121.208C121.048 12.4358 120.948 12.5358 120.928 12.7758C120.728 15.2358 122.268 16.6758 125.648 16.6758ZM139.196 16.6758C140.956 16.6758 142.356 16.1958 143.396 15.3158L144.456 16.3158C144.536 16.3958 144.636 16.4358 144.756 16.4358H147.056C147.276 16.4358 147.316 16.2758 147.176 16.1358L144.656 13.7158C145.276 12.5358 145.596 11.0158 145.596 9.21579C145.596 9.07579 145.496 8.97579 145.356 8.97579H143.696C143.556 8.97579 143.456 9.07579 143.456 9.21579C143.456 10.3758 143.336 11.3758 143.056 12.1958L140.096 9.35579C141.536 8.17579 142.296 7.05579 142.296 5.83579C142.296 4.09579 141.116 3.09579 139.076 3.09579C136.836 3.09579 135.636 4.07579 135.636 6.05579C135.636 7.15579 136.096 8.17579 137.136 9.27579C135.656 10.4358 134.896 11.5358 134.896 13.1758C134.896 15.2558 136.216 16.6758 139.196 16.6758ZM137.776 6.11579C137.776 5.35579 138.156 4.91579 138.996 4.91579C139.816 4.91579 140.156 5.31579 140.156 6.01579C140.156 6.69579 139.696 7.33579 138.776 8.07579C138.076 7.31579 137.776 6.69579 137.776 6.11579ZM137.056 13.0558C137.056 12.1558 137.416 11.5158 138.496 10.6158L141.976 13.9358C141.336 14.4958 140.476 14.7958 139.356 14.7958C137.816 14.7958 137.056 14.0958 137.056 13.0558ZM156.473 16.6758C159.873 16.6758 161.933 14.8758 161.673 12.0558C161.653 11.8758 161.593 11.7758 161.413 11.7758H159.493C159.333 11.7758 159.253 11.8758 159.273 12.0158C159.413 13.5758 158.433 14.5758 156.513 14.5758C154.673 14.5758 153.633 13.6158 153.633 11.6758V8.09579C153.633 6.15579 154.673 5.19579 156.513 5.19579C158.393 5.19579 159.333 6.13579 159.273 7.75579C159.253 7.89579 159.333 7.99579 159.493 7.99579H161.433C161.593 7.99579 161.653 7.85579 161.673 7.71579C162.073 4.87579 159.893 3.09579 156.473 3.09579C153.113 3.09579 151.233 4.77579 151.233 8.05579V11.7358C151.233 14.9958 153.093 16.6758 156.473 16.6758ZM163.745 16.4358H171.185C171.325 16.4358 171.425 16.3358 171.425 16.1958V14.5558C171.425 14.4158 171.325 14.3158 171.185 14.3158H165.925V3.57579C165.925 3.43579 165.845 3.33579 165.705 3.33579H163.745C163.605 3.33579 163.525 3.43579 163.525 3.57579V16.1958C163.525 16.3358 163.605 16.4358 163.745 16.4358ZM172.691 16.4358H174.631C174.771 16.4358 174.871 16.3358 174.871 16.1958V3.57579C174.871 3.43579 174.771 3.33579 174.631 3.33579H172.691C172.551 3.33579 172.471 3.43579 172.471 3.57579V16.1958C172.471 16.3358 172.551 16.4358 172.691 16.4358ZM177.223 16.4358H184.883C185.003 16.4358 185.103 16.3358 185.103 16.1958V14.5558C185.103 14.4158 185.003 14.3158 184.883 14.3158H179.403V10.8158H184.403C184.523 10.8158 184.623 10.7158 184.623 10.5758V9.03579C184.623 8.89579 184.523 8.79579 184.403 8.79579H179.403V5.45579H184.883C185.003 5.45579 185.103 5.35579 185.103 5.21579V3.57579C185.103 3.43579 185.003 3.33579 184.883 3.33579H177.223C177.083 3.33579 177.003 3.43579 177.003 3.57579V16.1958C177.003 16.3358 177.083 16.4358 177.223 16.4358ZM187.223 16.4358H189.103C189.243 16.4358 189.343 16.3358 189.343 16.1958V10.1558C189.343 8.89579 189.323 7.57579 189.283 6.33579H189.343C189.823 7.45579 190.403 8.79579 191.003 9.99579L194.123 16.2758C194.183 16.3758 194.283 16.4358 194.403 16.4358H197.203C197.343 16.4358 197.443 16.3358 197.443 16.1958V3.57579C197.443 3.43579 197.343 3.33579 197.203 3.33579H195.323C195.183 3.33579 195.103 3.43579 195.103 3.57579V9.89579C195.103 10.9558 195.143 12.4358 195.203 13.4958H195.143C194.783 12.5158 194.223 11.3158 193.563 9.99579L190.343 3.49579C190.283 3.39579 190.183 3.33579 190.063 3.33579H187.223C187.083 3.33579 187.003 3.43579 187.003 3.57579V16.1958C187.003 16.3358 187.083 16.4358 187.223 16.4358ZM202.582 16.4358H204.522C204.662 16.4358 204.762 16.3358 204.762 16.1958V5.45579H208.202C208.342 5.45579 208.442 5.35579 208.442 5.21579V3.57579C208.442 3.43579 208.342 3.33579 208.202 3.33579H198.902C198.762 3.33579 198.662 3.43579 198.662 3.57579V5.21579C198.662 5.35579 198.762 5.45579 198.902 5.45579H202.342V16.1958C202.342 16.3358 202.442 16.4358 202.582 16.4358ZM213.664 16.6758C217.064 16.6758 218.584 15.3758 218.584 13.0358C218.604 11.2758 217.924 10.3158 215.984 9.49579L213.124 8.27579C211.924 7.75579 211.524 7.33579 211.544 6.57579C211.544 5.61579 212.244 5.13579 213.604 5.13579C215.144 5.13579 216.044 5.79579 215.964 6.87579C215.944 7.15579 216.024 7.23579 216.184 7.23579H218.084C218.224 7.23579 218.304 7.11579 218.324 6.87579C218.544 4.41579 216.744 3.11579 213.624 3.11579C210.664 3.11579 209.164 4.33579 209.144 6.61579C209.124 8.27579 209.804 9.29579 211.744 10.1158L214.644 11.3558C215.804 11.8358 216.184 12.2358 216.184 13.0158C216.184 14.1158 215.404 14.6158 213.784 14.6158C212.124 14.6158 211.324 14.0358 211.344 12.7358C211.364 12.5558 211.284 12.4358 211.104 12.4358H209.224C209.064 12.4358 208.964 12.5358 208.944 12.7758C208.744 15.2358 210.284 16.6758 213.664 16.6758Z" fill="#F7F7F7"/>
<path d="M0 55.4358C0 47.1515 6.71573 40.4358 15 40.4358H1353C1361.28 40.4358 1368 47.1515 1368 55.4358V157.91H0V55.4358Z" fill="url(#paint0_linear_1713_3321)"/>
<path d="M188.987 102.324L187.822 105.603H187.725C187.531 104.864 187.175 103.738 186.593 102.388L180.347 86.7948H174.232V111.647H178.277V96.3114L178.244 92.9034C178.212 92.2283 178.147 91.7138 178.115 91.328H178.212C178.406 92.2926 178.632 92.9999 178.794 93.45L186.301 111.583H189.149L196.591 93.2892C196.753 92.8713 196.915 92.0354 197.076 91.328H197.174L196.979 95.797V111.551H201.283V86.7305H195.394L188.987 102.324ZM205.36 93.7393H209.567V111.551H205.36V93.7393ZM207.496 86.2161C206.784 86.2161 206.201 86.4733 205.716 86.9234C205.231 87.3735 204.972 87.9522 204.972 88.6595C204.967 88.9797 205.031 89.2972 205.16 89.591C205.288 89.8848 205.478 90.1481 205.716 90.3635C206.201 90.8136 206.784 91.0387 207.496 91.0387C208.208 91.0387 208.822 90.7815 209.275 90.3635C209.514 90.1481 209.704 89.8848 209.832 89.591C209.96 89.2972 210.024 88.9797 210.02 88.6595C210.02 87.9844 209.761 87.4056 209.275 86.9234C208.855 86.4733 208.24 86.2161 207.496 86.2161ZM224.484 93.5786C223.707 93.4178 222.898 93.3214 222.122 93.3214C220.212 93.3214 218.465 93.7393 217.009 94.5753C215.553 95.4112 214.388 96.5686 213.644 98.0154C212.867 99.4943 212.479 101.198 212.479 103.16C212.479 104.864 212.867 106.375 213.611 107.757C214.356 109.107 215.391 110.201 216.782 110.94C218.109 111.679 219.662 112.065 221.41 112.065C223.416 112.065 225.131 111.647 226.49 110.876L226.522 110.844V106.985L226.36 107.114C225.746 107.564 225.034 107.95 224.322 108.175C223.578 108.432 222.898 108.561 222.316 108.561C220.633 108.561 219.306 108.079 218.368 107.018C217.397 105.989 216.912 104.574 216.912 102.806C216.912 100.973 217.397 99.5265 218.4 98.4655C219.403 97.4045 220.73 96.858 222.348 96.858C223.707 96.858 225.098 97.3081 226.36 98.2083L226.522 98.3369V94.2538L226.49 94.2216C225.94 93.9966 225.325 93.7393 224.484 93.5786ZM238.365 93.45C237.33 93.45 236.359 93.7715 235.518 94.4467C234.806 95.0254 234.32 95.8613 233.9 96.858H233.867V93.7393H229.661V111.551H233.867V102.452C233.867 100.909 234.191 99.6229 234.903 98.6906C235.615 97.726 236.521 97.2438 237.621 97.2438C238.009 97.2438 238.398 97.3402 238.883 97.4045C239.336 97.5331 239.66 97.6617 239.886 97.8225L240.048 97.9511V93.7715L239.951 93.7393C239.66 93.5464 239.077 93.45 238.365 93.45ZM249.82 93.3535C246.875 93.3535 244.513 94.2216 242.863 95.9256C241.18 97.6296 240.371 99.9766 240.371 102.934C240.371 105.699 241.213 107.95 242.831 109.59C244.448 111.197 246.649 112.033 249.399 112.033C252.279 112.033 254.577 111.165 256.227 109.429C257.909 107.693 258.718 105.378 258.718 102.517C258.718 99.6872 257.942 97.4367 256.356 95.797C254.835 94.1573 252.603 93.3535 249.82 93.3535ZM253.185 107.05C252.409 108.046 251.179 108.529 249.658 108.529C248.137 108.529 246.908 108.046 246.034 106.985C245.16 105.989 244.74 104.542 244.74 102.709C244.74 100.813 245.193 99.3657 246.034 98.3369C246.908 97.3081 248.105 96.7937 249.626 96.7937C251.114 96.7937 252.279 97.2759 253.12 98.2726C253.962 99.2693 254.415 100.716 254.415 102.613C254.35 104.542 253.994 106.053 253.185 107.05ZM268.102 101.134C266.775 100.587 265.934 100.169 265.546 99.8158C265.222 99.4943 265.06 99.0442 265.06 98.4655C265.06 97.9832 265.255 97.501 265.74 97.1795C266.225 96.858 266.775 96.6972 267.584 96.6972C268.296 96.6972 269.04 96.8258 269.752 97.0187C270.464 97.2116 271.111 97.501 271.629 97.8868L271.791 98.0154V94.093L271.694 94.0609C271.208 93.8679 270.561 93.675 269.785 93.5143C269.008 93.3857 268.296 93.3214 267.714 93.3214C265.708 93.3214 264.057 93.8036 262.763 94.8646C261.469 95.8613 260.854 97.2116 260.854 98.787C260.854 99.6229 260.983 100.362 261.275 100.973C261.566 101.584 261.986 102.163 262.569 102.645C263.151 103.095 263.993 103.61 265.158 104.092C266.128 104.51 266.873 104.831 267.326 105.089C267.779 105.346 268.07 105.635 268.296 105.86C268.458 106.117 268.555 106.439 268.555 106.857C268.555 108.046 267.649 108.625 265.805 108.625C265.093 108.625 264.349 108.497 263.475 108.207C262.601 107.918 261.792 107.5 261.113 107.018L260.951 106.889V110.972L261.048 111.004C261.663 111.294 262.407 111.487 263.313 111.712C264.219 111.872 265.028 112.001 265.74 112.001C267.908 112.001 269.688 111.519 270.95 110.458C272.244 109.429 272.923 108.111 272.923 106.407C272.923 105.217 272.6 104.156 271.888 103.352C270.95 102.581 269.785 101.777 268.102 101.134ZM284.022 93.3535C281.078 93.3535 278.716 94.2216 277.065 95.9256C275.415 97.6296 274.574 99.9766 274.574 102.934C274.574 105.699 275.415 107.95 277.033 109.59C278.651 111.197 280.851 112.033 283.602 112.033C286.481 112.033 288.779 111.165 290.429 109.429C292.112 107.693 292.921 105.378 292.921 102.517C292.921 99.6872 292.144 97.4367 290.559 95.797C289.038 94.1573 286.805 93.3535 284.022 93.3535ZM287.355 107.05C286.578 108.046 285.349 108.529 283.828 108.529C282.275 108.529 281.078 108.046 280.204 106.985C279.33 105.989 278.91 104.542 278.91 102.709C278.91 100.813 279.363 99.3657 280.204 98.3369C281.078 97.3081 282.275 96.7937 283.796 96.7937C285.252 96.7937 286.449 97.2759 287.29 98.2726C288.132 99.2693 288.585 100.716 288.585 102.613C288.585 104.542 288.164 106.053 287.355 107.05ZM315.409 97.1795V93.7393H311.171V88.4666L311.041 88.4988L307.029 89.6884L306.932 89.7205V93.7393H300.589V91.4888C300.589 90.46 300.848 89.6562 301.301 89.1418C301.754 88.6274 302.434 88.3702 303.275 88.3702C303.858 88.3702 304.472 88.4988 305.152 88.7881L305.314 88.8846V85.2515L305.217 85.2194C304.634 85.0265 303.858 84.8979 302.855 84.8979C301.593 84.8979 300.492 85.1872 299.489 85.6695C298.486 86.2161 297.742 86.9555 297.192 87.9522C296.642 88.9167 296.351 90.0099 296.351 91.2637V93.7393H293.406V97.1473H296.351V111.551H300.589V97.1795H306.932V106.342C306.932 110.104 308.711 112.001 312.271 112.001C312.853 112.001 313.468 111.905 314.05 111.808C314.665 111.679 315.118 111.519 315.377 111.39L315.409 111.358V107.918L315.248 108.046C314.989 108.207 314.762 108.336 314.374 108.432C314.05 108.529 313.759 108.561 313.533 108.561C312.691 108.561 312.109 108.368 311.688 107.886C311.3 107.436 311.106 106.696 311.106 105.603V97.1795H315.409Z" fill="white"/>
<path d="M120 78.4358H139.835V98.1442H120V78.4358Z" fill="white"/>
<path d="M141.906 78.4357H161.741V98.1441H141.906V78.4357Z" fill="white"/>
<path d="M120 100.202H139.835V119.91H120V100.202Z" fill="white"/>
<path d="M141.906 100.202H161.741V119.91H141.906V100.202Z" fill="white"/>
<path d="M450.86 99.1731V78.4358H500.154V119.91H450.86V99.1731ZM470.237 100.703V90.3343H477.479C484.108 90.3343 484.788 90.4022 485.807 91.0142C487.949 92.306 489.003 96.8614 488.323 101.621C487.575 106.618 486.079 107.774 480.708 107.604L477.547 107.502L477.445 99.6151L477.377 91.6941H471.597V111.14L479.688 111.004L487.745 110.902L489.717 109.95C492.879 108.386 494.272 105.666 494.612 100.363C494.816 97.0314 494.34 93.2919 493.457 91.5581C492.709 90.0623 491.349 88.7025 489.785 87.8526C488.459 87.1047 488.085 87.1047 472.209 87.0027L455.959 86.9007V90.3343H464.458V111.072H470.237V100.703Z" fill="white"/>
<path d="M536.081 108.951C533.803 107.897 532.953 105.45 534.041 103.138C534.925 101.268 536.761 100.452 540.432 100.282C542.064 100.214 543.39 100.01 543.39 99.8405C543.39 98.5826 539.276 98.0727 536.625 99.0246L535.231 99.5005V95.489L536.863 95.217C537.747 95.0811 539.854 94.9451 541.554 94.9791C544.104 94.9791 544.92 95.1151 546.28 95.829C549.101 97.2228 549.339 97.7667 549.441 103.818L549.543 109.053H546.484C543.39 109.053 543.39 109.053 543.39 108.169V107.319L542.166 108.237C540.704 109.359 537.747 109.699 536.081 108.951ZM542.54 105.144C543.016 104.702 543.39 104.022 543.39 103.614C543.39 103.07 543.186 102.934 542.268 102.934C540.194 102.934 538.801 104.77 540.262 105.62C541.18 106.164 541.656 106.062 542.54 105.144ZM514.154 99.7045V90.2877L521.225 90.4237C529.112 90.5596 530.268 90.8316 531.491 92.8034C532.817 94.9791 532.001 97.8687 529.758 99.0246L528.704 99.6025L529.826 100.146C531.559 101.03 532.613 102.798 532.409 104.532C532.205 106.334 531.491 107.489 530.03 108.271C529.112 108.781 527.854 108.883 521.565 108.985L514.154 109.087V99.7045ZM524.114 104.94C524.998 104.464 525.372 103.988 525.372 103.206C525.372 102.118 524.386 101.574 522.449 101.574H520.613V103.206C520.613 104.124 520.715 104.974 520.851 105.076C521.191 105.45 523.299 105.348 524.114 104.94ZM524.386 97.1548C525.134 96.7469 525.27 95.1491 524.624 94.5031C524.386 94.2652 523.4 94.0952 522.415 94.0952H520.613V97.4948H522.177C523.027 97.4948 524.012 97.3248 524.386 97.1548ZM551.277 102.186L551.379 95.285L554.54 95.1831L557.668 95.0811V95.965C557.668 97.0188 557.838 97.0188 559.062 95.9989C560.966 94.4012 564.535 94.5711 566.201 96.3389C566.983 97.1888 567.017 97.3928 567.119 103.138L567.221 109.053H560.422L560.32 104.226C560.218 99.7385 560.184 99.3645 559.572 99.2625C558.314 98.9906 558.008 100.078 558.008 104.702V109.053H551.209L551.277 102.186ZM569.567 99.0246V88.9958H576.026V94.6051C576.026 97.6987 576.162 100.214 576.298 100.214C576.468 100.214 577.386 99.0586 578.371 97.6647L580.139 95.1151H583.879C586.802 95.1151 587.55 95.217 587.346 95.557C587.21 95.761 586.258 97.0528 585.273 98.3446C584.253 99.6705 583.335 100.928 583.267 101.132C583.165 101.37 584.117 103.138 585.341 105.076C586.564 107.014 587.584 108.713 587.584 108.815C587.584 108.951 585.85 109.053 583.777 109.053H579.935L578.269 105.994C577.352 104.294 576.468 102.934 576.298 102.934C576.162 102.934 576.026 104.328 576.026 105.994V109.053H569.567V99.0246Z" fill="white"/>
<path fill-rule="evenodd" clip-rule="evenodd" d="M794.332 112.925C795.473 113.225 796.87 113.439 798.071 113.439C799.297 113.439 800.705 113.226 801.895 112.889C805.463 111.887 808.462 109.009 809.724 105.392C810.332 103.715 810.768 101.825 810.768 100.035C810.768 98.2582 810.331 96.3447 809.761 94.7298C808.462 91.2263 805.5 88.3102 801.968 87.2707C800.839 86.9711 799.334 86.758 798.132 86.758C796.839 86.7711 795.553 86.9563 794.308 87.3086C790.788 88.3091 787.79 91.288 786.491 94.8293C785.921 96.4431 785.52 98.3955 785.52 100.248C785.52 102 785.921 104.028 786.515 105.843H775.591C773.163 105.843 771.198 103.715 771.198 101.212L771.161 78.4488H764.436V101.212C764.436 107.594 769.462 112.788 775.628 112.788H787.984V108.358C789.55 110.51 791.856 112.262 794.332 112.925ZM792.184 102.927C792.122 102.138 791.954 101.101 791.954 100.248C791.954 99.3225 792.088 98.1208 792.221 97.3074C792.306 96.5805 792.67 95.7303 792.937 95.1041C793.799 93.0392 795.898 91.738 798.108 91.738C800.305 91.738 802.429 93.0403 803.327 95.1041C803.631 95.7552 803.934 96.6562 804.031 97.3312C804.165 98.0818 804.334 99.184 804.334 100.034C804.334 100.898 804.104 102.062 803.995 102.889C803.934 103.615 803.569 104.465 803.302 105.053C802.368 107.144 800.328 108.557 798.071 108.557C795.875 108.557 793.799 107.143 792.937 105.09C792.669 104.466 792.245 103.616 792.184 102.927ZM834.971 107.519C833.247 111.261 829.543 113.638 825.515 113.638C823.087 113.638 820.514 112.6 818.668 110.948V112.775H812.429V78.4358H818.765V89.2977C820.64 87.6745 823.033 86.7735 825.514 86.7569C827.115 86.7569 828.875 87.195 830.248 87.884C832.443 89.0479 834.313 91.3258 835.308 93.7531C836.037 95.7174 836.536 98.0083 836.536 100.198C836.537 102.639 835.977 105.317 834.971 107.519ZM818.924 96.5697C819.045 95.9943 819.445 95.368 819.749 94.8553C820.744 93.2404 822.48 92.1771 824.349 92.1771C825.418 92.1771 826.582 92.5276 827.408 93.1409C828.707 94.1673 829.751 95.8937 829.946 97.634C830.043 98.3468 830.14 99.3852 830.14 100.175C830.14 100.888 830.007 101.752 829.946 102.44C829.848 103.566 829.278 104.766 828.707 105.731C827.783 107.245 826.049 108.246 824.252 108.246C822.043 108.246 820.015 106.795 819.287 104.667C818.826 103.291 818.498 101.513 818.498 99.9996C818.498 98.8963 818.693 97.5583 818.924 96.5697ZM844.607 112.788H838.187V78.4488H844.607V112.788ZM862.67 104.917C862.767 103.89 862.923 102.551 862.923 101.488C862.923 100.937 862.826 100.324 862.826 99.8103C862.281 100.111 861.503 100.461 860.848 100.599L856.879 101.563C856.211 101.7 855.507 102 854.876 102.275C854.184 102.588 853.443 103.102 853.018 103.69C852.642 104.127 852.484 104.753 852.484 105.317C852.484 105.567 852.546 105.868 852.617 106.081C853.018 107.068 853.88 108.007 854.876 108.346C855.555 108.56 856.262 108.674 856.975 108.683C858.578 108.683 860.18 108.07 861.441 107.068C862.074 106.557 862.608 105.73 862.67 104.917ZM868.896 109.272C868.896 110.548 869.188 111.773 869.722 112.775H863.496C863.356 112.023 863.234 111.267 863.131 110.509C861.08 112.324 858.409 113.363 855.677 113.363C853.25 113.363 850.712 112.462 848.819 110.96C847.448 109.884 846.453 108.206 846.246 106.417C846.246 106.255 846.223 105.98 846.223 105.805C846.223 103.439 847.387 101.212 849.28 99.9109C850.482 99.0467 852.109 98.2971 853.615 97.9845C855.216 97.5335 857.244 97.2955 858.773 97.0954C859.307 96.9829 860.205 96.7828 860.776 96.746C861.88 96.6076 862.694 95.6438 862.694 94.5178C862.694 94.1673 862.645 93.8288 862.512 93.5162C862.208 92.865 861.614 92.2766 860.947 92.0149C860.082 91.5607 859.12 91.3246 858.143 91.3269C857.317 91.3269 856.443 91.4892 855.642 91.8396C854.381 92.3523 853.519 93.5919 853.41 94.9937H847.851C847.949 93.7542 848.325 92.3156 848.82 91.2144C849.267 90.294 849.929 89.4953 850.751 88.8867C851.419 88.3989 852.281 87.8862 853.045 87.6482C854.683 87.0977 856.539 86.7591 858.276 86.7591C860.34 86.7591 862.609 87.1972 864.394 87.923C865.899 88.6109 867.233 89.7748 868.023 91.2134C868.555 92.4151 868.921 94.2052 868.921 95.5811L868.896 109.272ZM875.84 112.788L868.41 87.5465H874.736L879.238 103.59L883.256 87.5465H889.059L893.645 103.765L897.677 87.5465H904.073L896.85 112.788H890.952L886.328 95.7563L881.762 112.788H875.84ZM916.429 92.0516C917.668 92.4648 918.601 93.6655 918.698 95.0045H924.464C924.428 92.1879 922.826 89.5108 920.399 88.3091C916.806 86.5947 913.43 86.4195 909.667 87.5584C905.868 88.7223 904.011 91.0879 904.011 94.8293C904.011 96.6941 904.837 98.5837 906.172 99.7855C907.676 101.123 909.935 101.812 911.84 102.188L916.96 103.214C919.037 103.59 920.262 105.843 918.467 107.531C916.769 109.108 914.267 108.97 912.265 108.182C910.7 107.569 909.571 105.98 909.436 104.24H903.647C903.707 105.779 904.108 107.393 904.873 108.67C905.735 110.109 907.167 111.487 908.672 112.174C912.375 113.813 915.771 113.913 919.559 112.85C923.225 111.786 925.398 108.97 925.398 105.166C925.398 102.425 924.33 100.16 921.999 98.8585C920.699 98.1791 919.304 97.702 917.86 97.4437L911.574 96.2798C909.74 96.0051 908.998 94.1154 910.297 92.7763C912.034 91.2004 914.342 91.4632 916.429 92.0516Z" fill="white"/>
<path fill-rule="evenodd" clip-rule="evenodd" d="M739.691 78.4477H723.035V95.6178C723.035 105.079 730.757 112.8 740.205 112.8H757.374L757.399 96.1057L746.274 96.1176C742.657 96.1057 739.691 93.1647 739.691 89.5357V78.4477Z" fill="white"/>
<path fill-rule="evenodd" clip-rule="evenodd" d="M745.774 78.4477H740.718V89.5476C740.718 92.6011 743.221 95.0792 746.275 95.0911H757.374V90.0225L750.343 90.0365C747.827 90.0235 745.775 87.9846 745.775 85.4817V78.4477H745.774ZM751.33 78.4477H746.8V85.4936C746.8 87.433 748.389 88.9981 750.33 89.01H757.374V84.5298H754.046C752.57 84.5298 751.368 83.3162 751.343 81.8138L751.33 78.4477ZM757.374 78.4477H752.37L752.383 81.8138C752.395 82.7527 753.133 83.5033 754.034 83.5033H757.376V78.4477H757.374Z" fill="white"/>
<path d="M1238.09 108.483C1238.09 105.775 1240.34 103.53 1243.05 103.53C1245.75 103.53 1248 105.775 1248 108.483C1248 111.19 1245.75 113.436 1243.05 113.436C1240.34 113.436 1238.09 111.19 1238.09 108.483Z" fill="white"/>
<path d="M1089.31 95.0113C1089.31 100.757 1087.79 105.115 1084.69 108.219C1081.58 111.323 1077.29 112.841 1071.68 112.841H1060.85V78.5018H1072.47C1077.82 78.5018 1081.98 79.8886 1084.95 82.7282C1087.79 85.6339 1089.31 89.6622 1089.31 95.0113ZM1079.87 95.3414C1079.87 92.1716 1079.27 89.8603 1078.02 88.3415C1076.83 86.8226 1074.98 86.0962 1072.47 86.0962H1069.83V105.313H1071.88C1074.65 105.313 1076.63 104.521 1077.95 102.87C1079.27 101.219 1079.87 98.7094 1079.87 95.3414Z" fill="white"/>
<path d="M1127.94 78.4358H1119.29V112.907H1127.94V78.4358Z" fill="white"/>
<path d="M1156.21 100.03C1156.21 104.191 1155.08 107.492 1152.91 109.804C1150.73 112.115 1147.62 113.304 1143.66 113.304C1139.9 113.304 1136.86 112.115 1134.61 109.738C1132.37 107.36 1131.25 104.125 1131.25 100.03C1131.25 95.8698 1132.37 92.634 1134.55 90.3226C1136.73 88.0113 1139.83 86.8887 1143.79 86.8887C1146.24 86.8887 1148.41 87.417 1150.33 88.4736C1152.25 89.5302 1153.63 91.049 1154.69 93.0962C1155.75 95.0113 1156.21 97.3887 1156.21 100.03ZM1140.03 100.03C1140.03 102.209 1140.29 103.926 1140.89 105.049C1141.48 106.172 1142.41 106.766 1143.79 106.766C1145.11 106.766 1146.1 106.172 1146.63 105.049C1147.16 103.926 1147.49 102.209 1147.49 100.03C1147.49 97.8509 1147.23 96.2 1146.63 95.0773C1146.1 93.9547 1145.11 93.4264 1143.79 93.4264C1142.47 93.4264 1141.55 93.9547 1140.95 95.0773C1140.36 96.2 1140.03 97.8509 1140.03 100.03Z" fill="white"/>
<path d="M1168.29 87.2849H1159.64V112.907H1168.29V87.2849Z" fill="white"/>
<path d="M1168.29 78.4358H1159.64V84.1811H1168.29V78.4358Z" fill="white"/>
<path d="M1185.73 106.37C1186.92 106.37 1188.3 106.106 1189.89 105.511V111.983C1188.7 112.511 1187.64 112.841 1186.58 113.106C1185.53 113.304 1184.27 113.436 1182.89 113.436C1179.98 113.436 1177.93 112.709 1176.61 111.256C1175.36 109.804 1174.7 107.558 1174.7 104.587V94.0206H1171.66V87.4168H1174.7V80.747L1183.42 79.2281V87.2848H1188.9V93.8885H1183.42V103.86C1183.42 105.511 1184.21 106.37 1185.73 106.37Z" fill="white"/>
<path d="M1205.74 106.37C1206.92 106.37 1208.31 106.106 1209.9 105.511V111.983C1208.71 112.511 1207.65 112.841 1206.59 113.106C1205.54 113.304 1204.28 113.436 1202.9 113.436C1199.99 113.436 1197.94 112.709 1196.62 111.257C1195.37 109.804 1194.71 107.558 1194.71 104.587V94.0207H1191.67V87.4169H1194.71V80.8131L1203.42 79.4263V87.4829H1208.91V94.0867H1203.42V104.058C1203.36 105.511 1204.15 106.37 1205.74 106.37Z" fill="white"/>
<path d="M1232.94 89.8602C1230.9 87.8791 1227.99 86.8225 1224.23 86.8225C1220.26 86.8225 1217.23 87.9452 1215.11 90.3225C1213 92.6338 1211.94 95.9357 1211.94 100.294C1211.94 104.455 1213.07 107.69 1215.38 110.002C1217.69 112.247 1220.92 113.37 1225.08 113.37C1227.07 113.37 1228.78 113.238 1230.24 112.973C1231.69 112.709 1233.07 112.247 1234.4 111.521L1233.07 105.775C1232.08 106.172 1231.16 106.502 1230.3 106.7C1229.05 106.964 1227.66 107.162 1226.14 107.162C1224.49 107.162 1223.17 106.766 1222.18 105.973C1221.19 105.181 1220.73 104.058 1220.66 102.606H1236.05V98.7093C1235.98 94.747 1234.99 91.8414 1232.94 89.8602ZM1220.79 96.9263C1220.92 95.5395 1221.32 94.4829 1221.98 93.8225C1222.64 93.1621 1223.5 92.8319 1224.56 92.8319C1225.68 92.8319 1226.54 93.2282 1227.2 93.9546C1227.86 94.681 1228.19 95.6716 1228.25 96.9263H1220.79Z" fill="white"/>
<path d="M1112.89 89.8602C1110.84 87.8791 1107.93 86.8225 1104.17 86.8225C1100.21 86.8225 1097.17 87.9452 1095.06 90.3225C1092.94 92.6338 1091.89 95.9357 1091.89 100.294C1091.89 104.455 1093.01 107.69 1095.32 110.002C1097.63 112.247 1100.87 113.37 1105.03 113.37C1107.01 113.37 1108.73 113.238 1110.18 112.973C1111.63 112.709 1113.02 112.247 1114.34 111.521L1113.02 105.775C1112.03 106.172 1111.1 106.502 1110.25 106.7C1108.99 106.964 1107.6 107.162 1106.08 107.162C1104.43 107.162 1103.11 106.766 1102.12 105.973C1101.13 105.181 1100.67 104.058 1100.6 102.606H1115.99V98.7093C1115.99 94.747 1114.93 91.8414 1112.89 89.8602ZM1100.74 96.9263C1100.87 95.5395 1101.26 94.4829 1101.92 93.8225C1102.58 93.1621 1103.44 92.8319 1104.5 92.8319C1105.62 92.8319 1106.48 93.2282 1107.14 93.9546C1107.8 94.681 1108.13 95.6716 1108.2 96.9263H1100.74Z" fill="white"/>
<defs>
<linearGradient id="paint0_linear_1713_3321" x1="684" y1="40.4358" x2="684" y2="157.91" gradientUnits="userSpaceOnUse">
<stop offset="0.145833" stop-color="#F0B542"/>
<stop offset="1" stop-color="#F0B542" stop-opacity="0"/>
</linearGradient>
</defs>
</svg>
