<svg width="332" height="175" viewBox="0 0 332 175" fill="none" xmlns="http://www.w3.org/2000/svg">
<path d="M79.36 14C79.2427 14 79.184 13.936 79.184 13.808V3.712C79.184 3.584 79.2427 3.52 79.36 3.52H82.336C83.7227 3.52 84.7413 3.81333 85.392 4.4C86.0533 4.976 86.384 5.824 86.384 6.944C86.384 8.04267 86.048 8.88533 85.376 9.472C84.704 10.048 83.696 10.336 82.352 10.336H81.104V13.808C81.104 13.936 81.04 14 80.912 14H79.36ZM81.104 8.704H82.32C83.0453 8.704 83.584 8.56533 83.936 8.288C84.288 8.01067 84.464 7.568 84.464 6.96C84.464 6.32 84.288 5.86133 83.936 5.584C83.584 5.30667 83.04 5.168 82.304 5.168H81.104V8.704ZM85.8165 14C85.6778 14 85.6245 13.9307 85.6565 13.792L89.1125 3.664C89.1445 3.568 89.2138 3.52 89.3205 3.52H91.3685C91.4858 3.52 91.5605 3.568 91.5925 3.664L95.0645 13.792C95.0858 13.856 95.0805 13.9093 95.0485 13.952C95.0272 13.984 94.9845 14 94.9205 14H93.2245C93.1178 14 93.0485 13.952 93.0165 13.856L90.9525 7.28C90.8458 6.928 90.7392 6.58133 90.6325 6.24C90.5365 5.888 90.4405 5.536 90.3445 5.184H90.3125C90.2165 5.52533 90.1152 5.872 90.0085 6.224C89.9125 6.56533 89.8112 6.90667 89.7045 7.248L87.6885 13.84C87.6565 13.9467 87.5818 14 87.4645 14H85.8165ZM88.0085 11.808L88.3765 10.24H92.2645L92.6485 11.808H88.0085ZM98.8871 14.192C97.9911 14.192 97.2498 14.0693 96.6631 13.824C96.0871 13.5787 95.6711 13.2267 95.4151 12.768C95.1591 12.2987 95.0578 11.7333 95.1111 11.072C95.1325 10.8907 95.2071 10.8 95.3351 10.8H96.8391C96.9778 10.8 97.0418 10.88 97.0311 11.04C97.0311 11.5627 97.1911 11.9467 97.5111 12.192C97.8311 12.4267 98.3218 12.544 98.9831 12.544C99.6338 12.544 100.114 12.4427 100.423 12.24C100.743 12.0267 100.903 11.7013 100.903 11.264C100.903 11.0613 100.866 10.8853 100.791 10.736C100.716 10.576 100.588 10.4373 100.407 10.32C100.226 10.192 99.9805 10.064 99.6711 9.936L97.3511 8.944C96.8391 8.72 96.4285 8.48 96.1191 8.224C95.8098 7.95733 95.5911 7.65333 95.4631 7.312C95.3351 6.97067 95.2711 6.58133 95.2711 6.144C95.2818 5.23733 95.5858 4.544 96.1831 4.064C96.7805 3.584 97.6711 3.344 98.8551 3.344C99.6871 3.344 100.391 3.46133 100.967 3.696C101.554 3.92 101.991 4.256 102.279 4.704C102.567 5.14133 102.679 5.69067 102.615 6.352C102.594 6.544 102.53 6.64 102.423 6.64H100.903C100.839 6.64 100.791 6.61867 100.759 6.576C100.727 6.53333 100.716 6.45867 100.727 6.352C100.759 5.92533 100.604 5.58933 100.263 5.344C99.9325 5.088 99.4578 4.96 98.8391 4.96C98.2951 4.96 97.8845 5.056 97.6071 5.248C97.3298 5.44 97.1911 5.728 97.1911 6.112C97.1911 6.31467 97.2285 6.496 97.3031 6.656C97.3778 6.80533 97.5058 6.944 97.6871 7.072C97.8791 7.2 98.1351 7.33333 98.4551 7.472L100.743 8.448C101.266 8.66133 101.676 8.90133 101.975 9.168C102.284 9.424 102.503 9.72267 102.631 10.064C102.77 10.4053 102.834 10.8107 102.823 11.28C102.823 12.208 102.508 12.928 101.879 13.44C101.25 13.9413 100.252 14.192 98.8871 14.192ZM106.398 14C106.27 14 106.206 13.936 106.206 13.808V5.216H103.454C103.326 5.216 103.262 5.152 103.262 5.024V3.712C103.262 3.584 103.326 3.52 103.454 3.52H110.894C111.022 3.52 111.086 3.584 111.086 3.712V5.024C111.086 5.152 111.022 5.216 110.894 5.216H108.142V13.808C108.142 13.936 108.078 14 107.95 14H106.398ZM114.863 14C114.746 14 114.687 13.936 114.687 13.808V3.712C114.687 3.584 114.746 3.52 114.863 3.52H117.839C119.226 3.52 120.244 3.81333 120.895 4.4C121.556 4.976 121.887 5.824 121.887 6.944C121.887 8.04267 121.551 8.88533 120.879 9.472C120.207 10.048 119.199 10.336 117.855 10.336H116.607V13.808C116.607 13.936 116.543 14 116.415 14H114.863ZM116.607 8.704H117.823C118.548 8.704 119.087 8.56533 119.439 8.288C119.791 8.01067 119.967 7.568 119.967 6.96C119.967 6.32 119.791 5.86133 119.439 5.584C119.087 5.30667 118.543 5.168 117.807 5.168H116.607V8.704ZM121.32 14C121.181 14 121.128 13.9307 121.16 13.792L124.616 3.664C124.648 3.568 124.717 3.52 124.824 3.52H126.872C126.989 3.52 127.064 3.568 127.096 3.664L130.568 13.792C130.589 13.856 130.584 13.9093 130.552 13.952C130.53 13.984 130.488 14 130.424 14H128.728C128.621 14 128.552 13.952 128.52 13.856L126.456 7.28C126.349 6.928 126.242 6.58133 126.136 6.24C126.04 5.888 125.944 5.536 125.848 5.184H125.816C125.72 5.52533 125.618 5.872 125.512 6.224C125.416 6.56533 125.314 6.90667 125.208 7.248L123.192 13.84C123.16 13.9467 123.085 14 122.968 14H121.32ZM123.512 11.808L123.88 10.24H127.768L128.152 11.808H123.512ZM131.286 14C131.169 14 131.11 13.936 131.11 13.808V3.712C131.11 3.584 131.169 3.52 131.286 3.52H134.646C136.022 3.52 137.025 3.78667 137.654 4.32C138.284 4.84267 138.598 5.61067 138.598 6.624C138.598 7.36 138.428 7.984 138.086 8.496C137.756 8.99733 137.26 9.344 136.598 9.536V9.568L139.174 13.776C139.217 13.84 139.222 13.8933 139.19 13.936C139.169 13.9787 139.121 14 139.046 14H137.27C137.174 14 137.1 13.9573 137.046 13.872L134.63 9.824H133.03V13.808C133.03 13.936 132.966 14 132.838 14H131.286ZM133.03 8.304H134.566C135.302 8.304 135.836 8.176 136.166 7.92C136.508 7.664 136.678 7.25333 136.678 6.688C136.678 6.13333 136.524 5.73867 136.214 5.504C135.905 5.26933 135.382 5.152 134.646 5.152H133.03V8.304ZM142.37 14C142.242 14 142.178 13.936 142.178 13.808V5.216H139.426C139.298 5.216 139.234 5.152 139.234 5.024V3.712C139.234 3.584 139.298 3.52 139.426 3.52H146.866C146.994 3.52 147.058 3.584 147.058 3.712V5.024C147.058 5.152 146.994 5.216 146.866 5.216H144.114V13.808C144.114 13.936 144.05 14 143.922 14H142.37ZM148.225 14C148.108 14 148.049 13.936 148.049 13.808V3.712C148.049 3.584 148.108 3.52 148.225 3.52H150.497C150.604 3.52 150.678 3.56267 150.721 3.648L153.297 8.848C153.478 9.2 153.644 9.54133 153.793 9.872C153.953 10.2027 154.097 10.5173 154.225 10.816C154.353 11.1147 154.465 11.392 154.561 11.648H154.609C154.598 11.4347 154.588 11.2053 154.577 10.96C154.566 10.7147 154.556 10.464 154.545 10.208C154.534 9.952 154.529 9.70133 154.529 9.456C154.529 9.21067 154.529 8.98133 154.529 8.768V3.712C154.529 3.584 154.588 3.52 154.705 3.52H156.209C156.337 3.52 156.401 3.584 156.401 3.712V13.808C156.401 13.936 156.337 14 156.209 14H153.969C153.862 14 153.788 13.9573 153.745 13.872L151.249 8.848C151.089 8.528 150.929 8.20267 150.769 7.872C150.62 7.53067 150.47 7.19467 150.321 6.864C150.182 6.53333 150.049 6.21867 149.921 5.92H149.873C149.884 6.16533 149.889 6.416 149.889 6.672C149.9 6.928 149.905 7.184 149.905 7.44C149.916 7.696 149.921 7.952 149.921 8.208C149.921 8.464 149.921 8.72 149.921 8.976V13.808C149.921 13.936 149.857 14 149.729 14H148.225ZM158.288 14C158.171 14 158.112 13.936 158.112 13.808V3.712C158.112 3.584 158.171 3.52 158.288 3.52H164.416C164.533 3.52 164.592 3.584 164.592 3.712V5.024C164.592 5.152 164.533 5.216 164.416 5.216H160.032V7.888H164.032C164.149 7.888 164.208 7.952 164.208 8.08V9.312C164.208 9.44 164.149 9.504 164.032 9.504H160.032V12.304H164.416C164.533 12.304 164.592 12.368 164.592 12.496V13.808C164.592 13.936 164.533 14 164.416 14H158.288ZM166.289 14C166.171 14 166.113 13.936 166.113 13.808V3.712C166.113 3.584 166.171 3.52 166.289 3.52H169.649C171.025 3.52 172.027 3.78667 172.657 4.32C173.286 4.84267 173.601 5.61067 173.601 6.624C173.601 7.36 173.43 7.984 173.089 8.496C172.758 8.99733 172.262 9.344 171.601 9.536V9.568L174.177 13.776C174.219 13.84 174.225 13.8933 174.193 13.936C174.171 13.9787 174.123 14 174.049 14H172.273C172.177 14 172.102 13.9573 172.049 13.872L169.633 9.824H168.033V13.808C168.033 13.936 167.969 14 167.841 14H166.289ZM168.033 8.304H169.569C170.305 8.304 170.838 8.176 171.169 7.92C171.51 7.664 171.681 7.25333 171.681 6.688C171.681 6.13333 171.526 5.73867 171.217 5.504C170.907 5.26933 170.385 5.152 169.649 5.152H168.033V8.304ZM178.518 14.192C177.622 14.192 176.881 14.0693 176.294 13.824C175.718 13.5787 175.302 13.2267 175.046 12.768C174.79 12.2987 174.689 11.7333 174.742 11.072C174.764 10.8907 174.838 10.8 174.966 10.8H176.47C176.609 10.8 176.673 10.88 176.662 11.04C176.662 11.5627 176.822 11.9467 177.142 12.192C177.462 12.4267 177.953 12.544 178.614 12.544C179.265 12.544 179.745 12.4427 180.054 12.24C180.374 12.0267 180.534 11.7013 180.534 11.264C180.534 11.0613 180.497 10.8853 180.422 10.736C180.348 10.576 180.22 10.4373 180.038 10.32C179.857 10.192 179.612 10.064 179.302 9.936L176.982 8.944C176.47 8.72 176.06 8.48 175.75 8.224C175.441 7.95733 175.222 7.65333 175.094 7.312C174.966 6.97067 174.902 6.58133 174.902 6.144C174.913 5.23733 175.217 4.544 175.814 4.064C176.412 3.584 177.302 3.344 178.486 3.344C179.318 3.344 180.022 3.46133 180.598 3.696C181.185 3.92 181.622 4.256 181.91 4.704C182.198 5.14133 182.31 5.69067 182.246 6.352C182.225 6.544 182.161 6.64 182.054 6.64H180.534C180.47 6.64 180.422 6.61867 180.39 6.576C180.358 6.53333 180.348 6.45867 180.358 6.352C180.39 5.92533 180.236 5.58933 179.894 5.344C179.564 5.088 179.089 4.96 178.47 4.96C177.926 4.96 177.516 5.056 177.238 5.248C176.961 5.44 176.822 5.728 176.822 6.112C176.822 6.31467 176.86 6.496 176.934 6.656C177.009 6.80533 177.137 6.944 177.318 7.072C177.51 7.2 177.766 7.33333 178.086 7.472L180.374 8.448C180.897 8.66133 181.308 8.90133 181.606 9.168C181.916 9.424 182.134 9.72267 182.262 10.064C182.401 10.4053 182.465 10.8107 182.454 11.28C182.454 12.208 182.14 12.928 181.51 13.44C180.881 13.9413 179.884 14.192 178.518 14.192ZM193.805 14C193.762 14 193.719 13.9947 193.677 13.984C193.634 13.9627 193.597 13.936 193.565 13.904L188.045 8.608C187.511 8.096 187.122 7.61067 186.877 7.152C186.631 6.68267 186.509 6.19733 186.509 5.696C186.509 4.896 186.743 4.304 187.213 3.92C187.682 3.52533 188.365 3.328 189.261 3.328C190.082 3.328 190.717 3.52 191.165 3.904C191.613 4.27733 191.837 4.816 191.837 5.52C191.837 5.872 191.757 6.21867 191.597 6.56C191.437 6.89067 191.202 7.22667 190.893 7.568C190.594 7.90933 190.21 8.25067 189.741 8.592L188.637 7.584C188.967 7.34933 189.245 7.12533 189.469 6.912C189.693 6.69867 189.858 6.49067 189.965 6.288C190.071 6.08533 190.125 5.87733 190.125 5.664C190.125 5.376 190.05 5.15733 189.901 5.008C189.762 4.85867 189.527 4.784 189.197 4.784C188.855 4.784 188.605 4.86933 188.445 5.04C188.295 5.2 188.221 5.43467 188.221 5.744C188.221 6.02133 188.311 6.31467 188.493 6.624C188.674 6.93333 188.962 7.28 189.357 7.664L195.741 13.76C195.805 13.8133 195.826 13.8667 195.805 13.92C195.783 13.9733 195.73 14 195.645 14H193.805ZM189.357 14.192C188.567 14.192 187.917 14.0747 187.405 13.84C186.903 13.5947 186.53 13.264 186.285 12.848C186.039 12.4213 185.917 11.936 185.917 11.392C185.917 11.008 185.97 10.656 186.077 10.336C186.183 10.0053 186.338 9.70133 186.541 9.424C186.754 9.136 187.01 8.85867 187.309 8.592C187.618 8.32533 187.975 8.05333 188.381 7.776L189.229 8.976C188.834 9.28533 188.519 9.56267 188.285 9.808C188.05 10.0533 187.885 10.2933 187.789 10.528C187.693 10.752 187.645 11.008 187.645 11.296C187.645 11.712 187.799 12.048 188.109 12.304C188.418 12.56 188.877 12.688 189.485 12.688C190.285 12.688 190.919 12.512 191.389 12.16C191.869 11.808 192.215 11.3013 192.429 10.64C192.653 9.968 192.765 9.16267 192.765 8.224C192.765 8.096 192.829 8.032 192.957 8.032H194.285C194.413 8.032 194.477 8.096 194.477 8.224C194.477 9.472 194.285 10.544 193.901 11.44C193.527 12.3253 192.962 13.008 192.205 13.488C191.447 13.9573 190.498 14.192 189.357 14.192ZM203.178 14.192C201.824 14.192 200.784 13.8613 200.058 13.2C199.344 12.528 198.986 11.5413 198.986 10.24V7.296C198.986 5.984 199.349 4.99733 200.074 4.336C200.8 3.664 201.834 3.328 203.178 3.328C204.096 3.328 204.885 3.47733 205.546 3.776C206.208 4.07467 206.698 4.50133 207.018 5.056C207.338 5.61067 207.445 6.26667 207.338 7.024C207.328 7.07733 207.306 7.13067 207.274 7.184C207.253 7.22667 207.21 7.248 207.146 7.248H205.594C205.466 7.248 205.408 7.184 205.418 7.056C205.44 6.40533 205.264 5.904 204.89 5.552C204.528 5.18933 203.968 5.008 203.21 5.008C202.474 5.008 201.904 5.2 201.498 5.584C201.104 5.968 200.906 6.54933 200.906 7.328V10.192C200.906 10.9707 201.104 11.552 201.498 11.936C201.904 12.32 202.474 12.512 203.21 12.512C203.989 12.512 204.565 12.3307 204.938 11.968C205.312 11.5947 205.472 11.0933 205.418 10.464C205.408 10.336 205.466 10.272 205.594 10.272H207.13C207.248 10.272 207.317 10.3467 207.338 10.496C207.413 11.2427 207.285 11.8933 206.954 12.448C206.634 13.0027 206.149 13.4347 205.498 13.744C204.858 14.0427 204.085 14.192 203.178 14.192ZM208.996 14C208.878 14 208.82 13.936 208.82 13.808V3.712C208.82 3.584 208.878 3.52 208.996 3.52H210.564C210.681 3.52 210.74 3.584 210.74 3.712V12.304H214.948C215.076 12.304 215.14 12.368 215.14 12.496V13.808C215.14 13.936 215.076 14 214.948 14H208.996ZM216.152 14C216.035 14 215.976 13.936 215.976 13.808V3.712C215.976 3.584 216.035 3.52 216.152 3.52H217.704C217.832 3.52 217.896 3.584 217.896 3.712V13.808C217.896 13.936 217.832 14 217.704 14H216.152ZM219.778 14C219.661 14 219.602 13.936 219.602 13.808V3.712C219.602 3.584 219.661 3.52 219.778 3.52H225.906C226.023 3.52 226.082 3.584 226.082 3.712V5.024C226.082 5.152 226.023 5.216 225.906 5.216H221.522V7.888H225.522C225.639 7.888 225.698 7.952 225.698 8.08V9.312C225.698 9.44 225.639 9.504 225.522 9.504H221.522V12.304H225.906C226.023 12.304 226.082 12.368 226.082 12.496V13.808C226.082 13.936 226.023 14 225.906 14H219.778ZM227.779 14C227.661 14 227.603 13.936 227.603 13.808V3.712C227.603 3.584 227.661 3.52 227.779 3.52H230.051C230.157 3.52 230.232 3.56267 230.275 3.648L232.851 8.848C233.032 9.2 233.197 9.54133 233.347 9.872C233.507 10.2027 233.651 10.5173 233.779 10.816C233.907 11.1147 234.019 11.392 234.115 11.648H234.163C234.152 11.4347 234.141 11.2053 234.131 10.96C234.12 10.7147 234.109 10.464 234.099 10.208C234.088 9.952 234.083 9.70133 234.083 9.456C234.083 9.21067 234.083 8.98133 234.083 8.768V3.712C234.083 3.584 234.141 3.52 234.259 3.52H235.763C235.891 3.52 235.955 3.584 235.955 3.712V13.808C235.955 13.936 235.891 14 235.763 14H233.523C233.416 14 233.341 13.9573 233.299 13.872L230.803 8.848C230.643 8.528 230.483 8.20267 230.323 7.872C230.173 7.53067 230.024 7.19467 229.875 6.864C229.736 6.53333 229.603 6.21867 229.475 5.92H229.427C229.437 6.16533 229.443 6.416 229.443 6.672C229.453 6.928 229.459 7.184 229.459 7.44C229.469 7.696 229.475 7.952 229.475 8.208C229.475 8.464 229.475 8.72 229.475 8.976V13.808C229.475 13.936 229.411 14 229.283 14H227.779ZM240.066 14C239.938 14 239.874 13.936 239.874 13.808V5.216H237.122C236.994 5.216 236.93 5.152 236.93 5.024V3.712C236.93 3.584 236.994 3.52 237.122 3.52H244.562C244.69 3.52 244.754 3.584 244.754 3.712V5.024C244.754 5.152 244.69 5.216 244.562 5.216H241.81V13.808C241.81 13.936 241.746 14 241.618 14H240.066ZM248.931 14.192C248.035 14.192 247.294 14.0693 246.707 13.824C246.131 13.5787 245.715 13.2267 245.459 12.768C245.203 12.2987 245.102 11.7333 245.155 11.072C245.176 10.8907 245.251 10.8 245.379 10.8H246.883C247.022 10.8 247.086 10.88 247.075 11.04C247.075 11.5627 247.235 11.9467 247.555 12.192C247.875 12.4267 248.366 12.544 249.027 12.544C249.678 12.544 250.158 12.4427 250.467 12.24C250.787 12.0267 250.947 11.7013 250.947 11.264C250.947 11.0613 250.91 10.8853 250.835 10.736C250.76 10.576 250.632 10.4373 250.451 10.32C250.27 10.192 250.024 10.064 249.715 9.936L247.395 8.944C246.883 8.72 246.472 8.48 246.163 8.224C245.854 7.95733 245.635 7.65333 245.507 7.312C245.379 6.97067 245.315 6.58133 245.315 6.144C245.326 5.23733 245.63 4.544 246.227 4.064C246.824 3.584 247.715 3.344 248.899 3.344C249.731 3.344 250.435 3.46133 251.011 3.696C251.598 3.92 252.035 4.256 252.323 4.704C252.611 5.14133 252.723 5.69067 252.659 6.352C252.638 6.544 252.574 6.64 252.467 6.64H250.947C250.883 6.64 250.835 6.61867 250.803 6.576C250.771 6.53333 250.76 6.45867 250.771 6.352C250.803 5.92533 250.648 5.58933 250.307 5.344C249.976 5.088 249.502 4.96 248.883 4.96C248.339 4.96 247.928 5.056 247.651 5.248C247.374 5.44 247.235 5.728 247.235 6.112C247.235 6.31467 247.272 6.496 247.347 6.656C247.422 6.80533 247.55 6.944 247.731 7.072C247.923 7.2 248.179 7.33333 248.499 7.472L250.787 8.448C251.31 8.66133 251.72 8.90133 252.019 9.168C252.328 9.424 252.547 9.72267 252.675 10.064C252.814 10.4053 252.878 10.8107 252.867 11.28C252.867 12.208 252.552 12.928 251.923 13.44C251.294 13.9413 250.296 14.192 248.931 14.192Z" fill="#F7F7F7"/>
<path d="M0.5 50C0.5 41.7157 7.21573 35 15.5 35H316.5C324.784 35 331.5 41.7157 331.5 50V174.843H0.5V50Z" fill="url(#paint0_linear_3_575)"/>
<path d="M75.6163 81.9299L74.8882 83.9795H74.8276C74.7062 83.5173 74.4838 82.814 74.1197 81.9701L70.2166 72.2244H66.3943V87.7572H68.9222V78.1723L68.902 76.0423C68.8818 75.6203 68.8414 75.2988 68.8211 75.0577H68.8818C69.0031 75.6605 69.1447 76.1026 69.2458 76.3839L73.9377 87.717H75.7174L80.3689 76.2834C80.47 76.0222 80.5711 75.4997 80.6722 75.0577H80.7329L80.6115 77.8508V87.6969H83.3013V72.1842H79.6206L75.6163 81.9299ZM85.8495 76.5647H88.4786V87.6969H85.8495V76.5647ZM87.1842 71.8627C86.7393 71.8627 86.3753 72.0234 86.0719 72.3048C85.7686 72.5861 85.6068 72.9478 85.6068 73.3898C85.604 73.59 85.644 73.7884 85.7242 73.972C85.8044 74.1556 85.9229 74.3202 86.0719 74.4548C86.3753 74.7362 86.7393 74.8768 87.1842 74.8768C87.6292 74.8768 88.0134 74.7161 88.2965 74.4548C88.4456 74.3202 88.5641 74.1556 88.6443 73.972C88.7245 73.7884 88.7645 73.59 88.7617 73.3898C88.7617 72.9679 88.5999 72.6062 88.2965 72.3048C88.0336 72.0234 87.6494 71.8627 87.1842 71.8627ZM97.8017 76.4643C97.3163 76.3638 96.8107 76.3035 96.3254 76.3035C95.1322 76.3035 94.0401 76.5647 93.13 77.0872C92.2199 77.6096 91.4919 78.333 91.0267 79.2373C90.5414 80.1616 90.2987 81.2266 90.2987 82.4523C90.2987 83.5173 90.5414 84.4618 91.0065 85.3258C91.4717 86.1698 92.1188 86.853 92.9884 87.3151C93.8176 87.7773 94.7884 88.0184 95.8804 88.0184C97.1343 88.0184 98.2062 87.7572 99.0556 87.275L99.0758 87.2549V84.8436L98.9747 84.9239C98.5904 85.2052 98.1455 85.4464 97.7006 85.587C97.2354 85.7478 96.8107 85.8282 96.4467 85.8282C95.3951 85.8282 94.5659 85.5268 93.9794 84.8636C93.3727 84.2206 93.0693 83.3365 93.0693 82.2313C93.0693 81.0859 93.3727 80.1817 93.9996 79.5186C94.6266 78.8555 95.4557 78.5139 96.4669 78.5139C97.3163 78.5139 98.1859 78.7952 98.9747 79.3578L99.0758 79.4382V76.8862L99.0556 76.8661C98.7118 76.7255 98.3275 76.5647 97.8017 76.4643ZM106.478 76.3839C105.83 76.3839 105.224 76.5848 104.698 77.0068C104.253 77.3685 103.95 77.8909 103.687 78.5139H103.667V76.5647H101.037V87.6969H103.667V82.0103C103.667 81.0457 103.869 80.242 104.314 79.6592C104.759 79.0564 105.325 78.755 106.013 78.755C106.255 78.755 106.498 78.8153 106.801 78.8555C107.084 78.9358 107.287 79.0162 107.428 79.1167L107.529 79.1971V76.5848L107.469 76.5647C107.287 76.4442 106.923 76.3839 106.478 76.3839ZM113.637 76.3236C111.796 76.3236 110.32 76.8661 109.289 77.9311C108.237 78.9961 107.732 80.463 107.732 82.3117C107.732 84.0398 108.257 85.4464 109.269 86.4712C110.28 87.4759 111.655 87.9983 113.374 87.9983C115.174 87.9983 116.61 87.4558 117.641 86.3707C118.693 85.2856 119.198 83.8388 119.198 82.0505C119.198 80.2822 118.713 78.8756 117.722 77.8508C116.772 76.826 115.376 76.3236 113.637 76.3236ZM115.74 84.8837C115.255 85.5067 114.486 85.8081 113.536 85.8081C112.585 85.8081 111.817 85.5067 111.271 84.8436C110.725 84.2206 110.462 83.3164 110.462 82.171C110.462 80.9855 110.745 80.0812 111.271 79.4382C111.817 78.7952 112.565 78.4737 113.515 78.4737C114.446 78.4737 115.174 78.7751 115.7 79.398C116.225 80.0209 116.509 80.9252 116.509 82.1107C116.468 83.3164 116.246 84.2608 115.74 84.8837ZM125.063 81.1864C124.234 80.8448 123.708 80.5836 123.466 80.3625C123.263 80.1616 123.162 79.8803 123.162 79.5186C123.162 79.2172 123.284 78.9158 123.587 78.7148C123.89 78.5139 124.234 78.4134 124.74 78.4134C125.185 78.4134 125.65 78.4938 126.095 78.6143C126.54 78.7349 126.944 78.9158 127.268 79.1569L127.369 79.2373V76.7858L127.308 76.7657C127.005 76.6451 126.6 76.5245 126.115 76.4241C125.629 76.3437 125.185 76.3035 124.821 76.3035C123.567 76.3035 122.535 76.6049 121.726 77.268C120.917 77.8909 120.533 78.7349 120.533 79.7195C120.533 80.242 120.614 80.7041 120.796 81.0859C120.978 81.4677 121.241 81.8294 121.605 82.1308C121.969 82.4122 122.495 82.7337 123.223 83.0351C123.83 83.2963 124.295 83.4972 124.578 83.658C124.861 83.8187 125.043 83.9996 125.185 84.1403C125.286 84.301 125.346 84.5019 125.346 84.7632C125.346 85.5067 124.78 85.8684 123.627 85.8684C123.182 85.8684 122.717 85.788 122.171 85.6071C121.625 85.4263 121.12 85.1651 120.695 84.8636L120.594 84.7833V87.3352L120.654 87.3553C121.039 87.5362 121.504 87.6567 122.07 87.7974C122.636 87.8979 123.142 87.9783 123.587 87.9783C124.942 87.9783 126.054 87.6768 126.843 87.0137C127.652 86.3707 128.077 85.5468 128.077 84.4819C128.077 83.7384 127.874 83.0753 127.429 82.5729C126.843 82.0906 126.115 81.5883 125.063 81.1864ZM135.013 76.3236C133.173 76.3236 131.697 76.8661 130.665 77.9311C129.634 78.9961 129.108 80.463 129.108 82.3117C129.108 84.0398 129.634 85.4464 130.645 86.4712C131.656 87.4759 133.031 87.9983 134.75 87.9983C136.55 87.9983 137.986 87.4558 139.018 86.3707C140.069 85.2856 140.575 83.8388 140.575 82.0505C140.575 80.2822 140.089 78.8756 139.098 77.8508C138.148 76.826 136.753 76.3236 135.013 76.3236ZM137.096 84.8837C136.611 85.5067 135.842 85.8081 134.892 85.8081C133.921 85.8081 133.173 85.5067 132.627 84.8436C132.081 84.2206 131.818 83.3164 131.818 82.171C131.818 80.9855 132.101 80.0812 132.627 79.4382C133.173 78.7952 133.921 78.4737 134.872 78.4737C135.782 78.4737 136.53 78.7751 137.056 79.398C137.582 80.0209 137.865 80.9252 137.865 82.1107C137.865 83.3164 137.602 84.2608 137.096 84.8837ZM154.63 78.7148V76.5647H151.981V73.2693L151.9 73.2894L149.392 74.0329L149.332 74.053V76.5647H145.368V75.1581C145.368 74.5151 145.53 74.0128 145.813 73.6913C146.096 73.3697 146.521 73.209 147.046 73.209C147.41 73.209 147.795 73.2894 148.219 73.4702L148.32 73.5305V71.2599L148.26 71.2398C147.896 71.1192 147.41 71.0388 146.783 71.0388C145.995 71.0388 145.307 71.2197 144.68 71.5211C144.053 71.8627 143.588 72.3248 143.244 72.9478C142.901 73.5506 142.719 74.2338 142.719 75.0175V76.5647H140.878V78.6947H142.719V87.6969H145.368V78.7148H149.332V84.4417C149.332 86.7927 150.444 87.9783 152.669 87.9783C153.033 87.9783 153.417 87.918 153.781 87.8577C154.165 87.7773 154.448 87.6768 154.61 87.5965L154.63 87.5764V85.4263L154.529 85.5067C154.367 85.6071 154.226 85.6875 153.983 85.7478C153.781 85.8081 153.599 85.8282 153.457 85.8282C152.931 85.8282 152.567 85.7076 152.305 85.4062C152.062 85.1249 151.941 84.6627 151.941 83.9795V78.7148H154.63Z" fill="white"/>
<path d="M32.5 67H44.8971V79.3178H32.5V67Z" fill="white"/>
<path d="M46.1909 67H58.588V79.3178H46.1909V67Z" fill="white"/>
<path d="M32.5 80.6039H44.8971V92.9216H32.5V80.6039Z" fill="white"/>
<path d="M46.1909 80.6039H58.588V92.9216H46.1909V80.6039Z" fill="white"/>
<path d="M293.309 87.8028C293.309 86.1106 294.712 84.7073 296.404 84.7073C298.097 84.7073 299.5 86.1106 299.5 87.8028C299.5 89.495 298.097 90.8983 296.404 90.8983C294.712 90.8983 293.309 89.495 293.309 87.8028Z" fill="white"/>
<path d="M200.319 79.383C200.319 82.9738 199.37 85.6978 197.43 87.6377C195.49 89.5775 192.808 90.5268 189.299 90.5268H182.531V69.0646H189.795C193.138 69.0646 195.738 69.9313 197.595 71.7061C199.37 73.5221 200.319 76.0398 200.319 79.383ZM194.417 79.5893C194.417 77.6082 194.046 76.1636 193.262 75.2143C192.519 74.265 191.363 73.811 189.795 73.811H188.144V85.8216H189.423C191.157 85.8216 192.395 85.3264 193.22 84.2945C194.046 83.2627 194.417 81.6943 194.417 79.5893Z" fill="white"/>
<path d="M224.464 69.0233H219.058V90.5681H224.464V69.0233Z" fill="white"/>
<path d="M242.129 82.5198C242.129 85.1201 241.428 87.1838 240.066 88.6283C238.704 90.0729 236.764 90.8158 234.288 90.8158C231.935 90.8158 230.036 90.0729 228.633 88.5871C227.23 87.1012 226.528 85.0788 226.528 82.5198C226.528 79.9196 227.23 77.8972 228.592 76.4526C229.954 75.008 231.894 74.3064 234.37 74.3064C235.897 74.3064 237.259 74.6366 238.456 75.297C239.653 75.9573 240.52 76.9066 241.18 78.1861C241.841 79.383 242.129 80.8689 242.129 82.5198ZM232.017 82.5198C232.017 83.8819 232.183 84.955 232.554 85.6566C232.925 86.3583 233.503 86.7297 234.37 86.7297C235.196 86.7297 235.815 86.3583 236.145 85.6566C236.475 84.955 236.681 83.8819 236.681 82.5198C236.681 81.1578 236.516 80.126 236.145 79.4243C235.815 78.7227 235.196 78.3925 234.37 78.3925C233.545 78.3925 232.967 78.7227 232.595 79.4243C232.224 80.126 232.017 81.1578 232.017 82.5198Z" fill="white"/>
<path d="M249.683 74.554H244.276V90.5681H249.683V74.554Z" fill="white"/>
<path d="M249.683 69.0233H244.276V72.6141H249.683V69.0233Z" fill="white"/>
<path d="M260.579 86.482C261.322 86.482 262.189 86.3169 263.179 85.9454V89.9903C262.436 90.3204 261.776 90.5268 261.116 90.6919C260.455 90.8157 259.671 90.8983 258.804 90.8983C256.988 90.8983 255.709 90.4443 254.883 89.5362C254.099 88.6282 253.686 87.2249 253.686 85.3676V78.7638H251.788V74.6365H253.686V70.4678L259.135 69.5186V74.5539H262.56V78.6813H259.135V84.9136C259.135 85.9454 259.63 86.482 260.579 86.482Z" fill="white"/>
<path d="M273.085 86.482C273.828 86.482 274.694 86.3169 275.685 85.9454V89.9902C274.942 90.3204 274.282 90.5268 273.621 90.6919C272.961 90.8157 272.177 90.8982 271.31 90.8982C269.494 90.8982 268.214 90.4442 267.389 89.5362C266.605 88.6282 266.192 87.2249 266.192 85.3676V78.7638H264.293V74.6364H266.192V70.5091L271.64 69.6423V74.6777H275.066V78.8051H271.64V85.0374C271.599 85.9454 272.094 86.482 273.085 86.482Z" fill="white"/>
<path d="M290.089 76.1636C288.81 74.9254 286.994 74.265 284.641 74.265C282.165 74.265 280.266 74.9667 278.945 76.4525C277.625 77.8971 276.964 79.9608 276.964 82.6848C276.964 85.2851 277.666 87.3075 279.111 88.752C280.555 90.1553 282.578 90.857 285.178 90.857C286.416 90.857 287.489 90.7744 288.397 90.6094C289.305 90.4443 290.172 90.1553 290.997 89.7013L290.172 86.1105C289.553 86.3582 288.975 86.5645 288.438 86.6884C287.654 86.8535 286.787 86.9773 285.838 86.9773C284.806 86.9773 283.981 86.7296 283.362 86.2344C282.743 85.7391 282.454 85.0374 282.412 84.1294H292.029V81.6943C291.988 79.2178 291.369 77.4018 290.089 76.1636ZM282.495 80.5799C282.578 79.7131 282.825 79.0527 283.238 78.64C283.651 78.2273 284.187 78.0209 284.848 78.0209C285.549 78.0209 286.086 78.2686 286.499 78.7226C286.911 79.1766 287.118 79.7957 287.159 80.5799H282.495Z" fill="white"/>
<path d="M215.054 76.1636C213.775 74.9254 211.959 74.265 209.606 74.265C207.13 74.265 205.231 74.9667 203.91 76.4525C202.59 77.8971 201.929 79.9608 201.929 82.6848C201.929 85.2851 202.631 87.3075 204.075 88.752C205.52 90.1553 207.542 90.857 210.143 90.857C211.381 90.857 212.454 90.7744 213.362 90.6094C214.27 90.4443 215.137 90.1553 215.962 89.7013L215.137 86.1105C214.518 86.3582 213.94 86.5645 213.403 86.6884C212.619 86.8535 211.752 86.9773 210.803 86.9773C209.771 86.9773 208.946 86.7296 208.327 86.2344C207.708 85.7391 207.419 85.0374 207.377 84.1294H216.994V81.6943C216.994 79.2178 216.334 77.4018 215.054 76.1636ZM207.46 80.5799C207.542 79.7131 207.79 79.0527 208.203 78.64C208.616 78.2273 209.152 78.0209 209.812 78.0209C210.514 78.0209 211.051 78.2686 211.463 78.7226C211.876 79.1766 212.082 79.7957 212.124 80.5799H207.46Z" fill="white"/>
<path d="M32.5 129.882V116.922H63.3085V142.843H32.5V129.882ZM44.6109 130.839V124.358H49.1366C53.2798 124.358 53.7048 124.401 54.3422 124.783C55.6808 125.591 56.3394 128.438 55.9145 131.412C55.447 134.536 54.5122 135.258 51.1551 135.152L49.1791 135.088L49.1154 130.159L49.0729 125.208H45.4608V137.361L50.5177 137.277L55.5533 137.213L56.7856 136.618C58.7616 135.64 59.6328 133.941 59.8452 130.626C59.9727 128.544 59.6753 126.207 59.1228 125.123C58.6554 124.188 57.8055 123.338 56.8281 122.807C55.9995 122.34 55.7658 122.34 45.8433 122.276L35.6871 122.212V124.358H40.9989V137.319H44.6109V130.839Z" fill="white"/>
<path d="M85.7631 135.994C84.3395 135.335 83.8083 133.805 84.4882 132.361C85.0407 131.192 86.188 130.682 88.4827 130.576C89.5026 130.533 90.3312 130.406 90.3312 130.3C90.3312 129.513 87.7603 129.195 86.103 129.79L85.2319 130.087V127.58L86.2518 127.41C86.8042 127.325 88.1215 127.24 89.1839 127.261C90.7774 127.261 91.2874 127.346 92.1373 127.792C93.9008 128.664 94.0495 129.004 94.1132 132.786L94.177 136.058H92.2647C90.3312 136.058 90.3312 136.058 90.3312 135.505V134.974L89.5663 135.548C88.6527 136.249 86.8042 136.461 85.7631 135.994ZM89.8001 133.614C90.0975 133.338 90.3312 132.913 90.3312 132.658C90.3312 132.318 90.2038 132.233 89.6301 132.233C88.334 132.233 87.4629 133.38 88.3765 133.912C88.9502 134.252 89.2476 134.188 89.8001 133.614ZM72.0586 130.215V124.329L76.478 124.414C81.4074 124.499 82.1298 124.669 82.8947 125.901C83.7233 127.261 83.2134 129.067 81.8111 129.79L81.1524 130.151L81.8536 130.491C82.9372 131.043 83.5959 132.148 83.4684 133.232C83.3409 134.358 82.8947 135.08 81.9811 135.569C81.4074 135.888 80.6212 135.951 76.6905 136.015L72.0586 136.079V130.215ZM78.284 133.487C78.8365 133.189 79.0702 132.892 79.0702 132.403C79.0702 131.723 78.454 131.383 77.2429 131.383H76.0956V132.403C76.0956 132.977 76.1593 133.508 76.2443 133.572C76.4568 133.805 77.7741 133.742 78.284 133.487ZM78.454 128.621C78.9215 128.366 79.0064 127.367 78.6028 126.964C78.454 126.815 77.8378 126.709 77.2217 126.709H76.0956V128.834H77.0729C77.6041 128.834 78.2203 128.727 78.454 128.621ZM95.2606 131.766L95.3243 127.452L97.3003 127.389L99.2551 127.325V127.877C99.2551 128.536 99.3613 128.536 100.126 127.899C101.316 126.9 103.547 127.006 104.588 128.111C105.077 128.642 105.098 128.77 105.162 132.361L105.226 136.058H100.976L100.912 133.041C100.849 130.236 100.827 130.002 100.445 129.938C99.6588 129.768 99.4676 130.448 99.4676 133.338V136.058H95.2181L95.2606 131.766ZM106.692 129.79V123.522H110.729V127.028C110.729 128.961 110.814 130.533 110.899 130.533C111.005 130.533 111.578 129.811 112.195 128.94L113.3 127.346H115.637C117.464 127.346 117.931 127.41 117.804 127.622C117.719 127.75 117.124 128.557 116.508 129.365C115.87 130.193 115.297 130.98 115.254 131.107C115.191 131.256 115.785 132.361 116.55 133.572C117.315 134.783 117.953 135.845 117.953 135.909C117.953 135.994 116.869 136.058 115.573 136.058H113.172L112.131 134.145C111.557 133.083 111.005 132.233 110.899 132.233C110.814 132.233 110.729 133.104 110.729 134.145V136.058H106.692V129.79Z" fill="white"/>
<path fill-rule="evenodd" clip-rule="evenodd" d="M217.584 140.438C218.297 140.625 219.17 140.759 219.921 140.759C220.687 140.759 221.567 140.626 222.311 140.415C224.541 139.789 226.415 137.99 227.204 135.729C227.584 134.681 227.856 133.5 227.856 132.381C227.856 131.271 227.583 130.075 227.227 129.065C226.415 126.876 224.564 125.053 222.356 124.404C221.651 124.216 220.71 124.083 219.959 124.083C219.15 124.091 218.347 124.207 217.569 124.427C215.368 125.053 213.495 126.914 212.683 129.128C212.327 130.136 212.076 131.357 212.076 132.515C212.076 133.609 212.327 134.877 212.698 136.011H205.871C204.353 136.011 203.125 134.681 203.125 133.117L203.102 118.89H198.899V133.117C198.899 137.106 202.04 140.352 205.894 140.352H213.616V137.583C214.595 138.928 216.036 140.023 217.584 140.438ZM216.241 134.188C216.203 133.696 216.097 133.047 216.097 132.515C216.097 131.936 216.181 131.185 216.264 130.676C216.318 130.222 216.545 129.691 216.712 129.299C217.251 128.009 218.563 127.196 219.944 127.196C221.317 127.196 222.645 128.01 223.206 129.299C223.396 129.706 223.585 130.269 223.646 130.691C223.73 131.16 223.835 131.849 223.835 132.381C223.835 132.921 223.691 133.648 223.623 134.165C223.585 134.618 223.357 135.15 223.19 135.518C222.606 136.824 221.331 137.707 219.921 137.707C218.548 137.707 217.251 136.824 216.712 135.541C216.544 135.15 216.279 134.619 216.241 134.188ZM242.983 137.059C241.905 139.397 239.591 140.883 237.073 140.883C235.555 140.883 233.947 140.234 232.794 139.202V140.344H228.895V118.882H232.854V125.67C234.026 124.656 235.522 124.093 237.072 124.082C238.073 124.082 239.173 124.356 240.031 124.787C241.403 125.514 242.572 126.938 243.194 128.455C243.65 129.683 243.961 131.115 243.961 132.483C243.962 134.009 243.612 135.682 242.983 137.059ZM232.953 130.215C233.029 129.856 233.279 129.464 233.469 129.144C234.091 128.135 235.176 127.47 236.344 127.47C237.012 127.47 237.74 127.689 238.256 128.072C239.068 128.714 239.721 129.793 239.842 130.881C239.903 131.326 239.964 131.975 239.964 132.469C239.964 132.914 239.881 133.454 239.842 133.884C239.781 134.588 239.425 135.338 239.068 135.941C238.491 136.887 237.407 137.513 236.284 137.513C234.903 137.513 233.636 136.606 233.181 135.276C232.893 134.416 232.688 133.305 232.688 132.359C232.688 131.67 232.809 130.833 232.953 130.215ZM249.006 140.352H244.993V118.89H249.006V140.352ZM260.295 135.432C260.356 134.791 260.453 133.954 260.453 133.289C260.453 132.945 260.392 132.562 260.392 132.241C260.052 132.429 259.565 132.648 259.156 132.734L256.675 133.336C256.258 133.422 255.818 133.609 255.423 133.781C254.991 133.977 254.528 134.298 254.263 134.666C254.027 134.939 253.929 135.33 253.929 135.682C253.929 135.839 253.967 136.027 254.012 136.16C254.263 136.777 254.801 137.364 255.423 137.575C255.848 137.709 256.29 137.78 256.736 137.786C257.737 137.786 258.739 137.403 259.527 136.777C259.922 136.457 260.256 135.941 260.295 135.432ZM264.186 138.154C264.186 138.952 264.369 139.718 264.703 140.344H260.811C260.724 139.874 260.647 139.401 260.583 138.927C259.301 140.062 257.632 140.711 255.924 140.711C254.407 140.711 252.821 140.148 251.638 139.209C250.781 138.537 250.159 137.488 250.03 136.37C250.03 136.269 250.016 136.097 250.016 135.987C250.016 134.509 250.743 133.117 251.926 132.304C252.677 131.764 253.694 131.295 254.636 131.1C255.636 130.818 256.904 130.669 257.859 130.544C258.193 130.474 258.754 130.349 259.111 130.326C259.801 130.239 260.31 129.637 260.31 128.933C260.31 128.714 260.279 128.502 260.196 128.307C260.006 127.9 259.635 127.532 259.218 127.369C258.678 127.085 258.076 126.937 257.466 126.939C256.949 126.939 256.403 127.04 255.903 127.259C255.114 127.58 254.576 128.354 254.507 129.23H251.033C251.094 128.456 251.329 127.557 251.639 126.868C251.918 126.293 252.332 125.794 252.846 125.414C253.263 125.109 253.802 124.788 254.28 124.639C255.303 124.295 256.463 124.084 257.549 124.084C258.839 124.084 260.257 124.358 261.372 124.811C262.313 125.241 263.147 125.969 263.641 126.868C263.973 127.619 264.202 128.738 264.202 129.598L264.186 138.154ZM268.526 140.352L263.883 124.576H267.836L270.65 134.603L273.161 124.576H276.788L279.654 134.712L282.174 124.576H286.172L281.658 140.352H277.971L275.081 129.707L272.228 140.352H268.526ZM293.894 127.392C294.668 127.65 295.252 128.4 295.313 129.237H298.916C298.894 127.477 297.892 125.804 296.375 125.053C294.13 123.981 292.02 123.872 289.668 124.583C287.294 125.311 286.133 126.789 286.133 129.128C286.133 130.293 286.649 131.474 287.484 132.225C288.424 133.062 289.836 133.492 291.026 133.727L294.226 134.368C295.524 134.603 296.29 136.011 295.168 137.066C294.107 138.052 292.543 137.965 291.292 137.473C290.313 137.09 289.608 136.097 289.524 135.009H285.906C285.943 135.971 286.194 136.98 286.672 137.778C287.21 138.677 288.106 139.539 289.046 139.968C291.361 140.993 293.483 141.055 295.851 140.39C298.142 139.726 299.5 137.965 299.5 135.588C299.5 133.875 298.832 132.459 297.375 131.646C296.563 131.221 295.691 130.923 294.789 130.762L290.86 130.034C289.714 129.863 289.25 128.681 290.062 127.845C291.148 126.86 292.59 127.024 293.894 127.392Z" fill="white"/>
<path fill-rule="evenodd" clip-rule="evenodd" d="M183.433 118.889H173.023V129.621C173.023 135.534 177.849 140.359 183.754 140.359H194.485L194.501 129.925L187.548 129.933C185.287 129.925 183.433 128.087 183.433 125.819V118.889Z" fill="white"/>
<path fill-rule="evenodd" clip-rule="evenodd" d="M187.235 118.889H184.075V125.827C184.075 127.735 185.639 129.284 187.548 129.291H194.485V126.123L190.09 126.132C188.518 126.124 187.235 124.85 187.235 123.285V118.889H187.235ZM190.708 118.889H187.876V123.293C187.876 124.505 188.869 125.483 190.082 125.491H194.485V122.69H192.405C191.482 122.69 190.731 121.932 190.716 120.993L190.708 118.889ZM194.485 118.889H191.357L191.365 120.993C191.373 121.58 191.834 122.049 192.398 122.049H194.486V118.889H194.485Z" fill="white"/>
<defs>
<linearGradient id="paint0_linear_3_575" x1="166" y1="35" x2="166" y2="174.843" gradientUnits="userSpaceOnUse">
<stop stop-color="#F0B542"/>
<stop offset="1" stop-color="#F0B542" stop-opacity="0"/>
</linearGradient>
</defs>
</svg>
